<?xml version="1.0" encoding="UTF-8"?>
<svg version="1.1" xmlns="http://www.w3.org/2000/svg" width="994" height="1065">
<path d="M0 0 C328.02 0 656.04 0 994 0 C994 351.45 994 702.9 994 1065 C665.98 1065 337.96 1065 0 1065 C0 713.55 0 362.1 0 0 Z " fill="#234165" transform="translate(0,0)"/>
<path d="M0 0 C0.99 0 1.98 0 3 0 C3 0.66 3 1.32 3 2 C3.66 2 4.32 2 5 2 C5 2.66 5 3.32 5 4 C6.32 4 7.64 4 9 4 C9 4.66 9 5.32 9 6 C9.66 6 10.32 6 11 6 C11 6.66 11 7.32 11 8 C11.66 8 12.32 8 13 8 C13.33 9.32 13.66 10.64 14 12 C15.32 12 16.64 12 18 12 C18 12.66 18 13.32 18 14 C18.66 14 19.32 14 20 14 C20 14.66 20 15.32 20 16 C20.66 16 21.32 16 22 16 C22 16.66 22 17.32 22 18 C22.99 18 23.98 18 25 18 C25 18.66 25 19.32 25 20 C25.66 20 26.32 20 27 20 C27 20.66 27 21.32 27 22 C27.66 22 28.32 22 29 22 C29 22.66 29 23.32 29 24 C29.66 24 30.32 24 31 24 C31 24.66 31 25.32 31 26 C31.66 26 32.32 26 33 26 C33 26.99 33 27.98 33 29 C33.99 29 34.98 29 36 29 C36 29.66 36 30.32 36 31 C36.66 31 37.32 31 38 31 C38 31.66 38 32.32 38 33 C38.66 33 39.32 33 40 33 C40 33.66 40 34.32 40 35 C40.66 35 41.32 35 42 35 C42 35.66 42 36.32 42 37 C43.32 37 44.64 37 46 37 C46 37.66 46 38.32 46 39 C46.66 39 47.32 39 48 39 C48.33 40.32 48.66 41.64 49 43 C49.66 43 50.32 43 51 43 C51 43.66 51 44.32 51 45 C52.32 45 53.64 45 55 45 C55 45.66 55 46.32 55 47 C55.66 47 56.32 47 57 47 C57 47.66 57 48.32 57 49 C57.66 49 58.32 49 59 49 C59 49.66 59 50.32 59 51 C59.99 51 60.98 51 62 51 C62 51.66 62 52.32 62 53 C62.66 53 63.32 53 64 53 C64 53.66 64 54.32 64 55 C64.66 55 65.32 55 66 55 C66 55.66 66 56.32 66 57 C66.66 57 67.32 57 68 57 C68 57.66 68 58.32 68 59 C68.66 59 69.32 59 70 59 C70 59.66 70 60.32 70 61 C70.99 61 71.98 61 73 61 C73 61.66 73 62.32 73 63 C73.66 63 74.32 63 75 63 C75 63.66 75 64.32 75 65 C75.66 65 76.32 65 77 65 C77 65.66 77 66.32 77 67 C77.66 67 78.32 67 79 67 C79 67.66 79 68.32 79 69 C79.66 69 80.32 69 81 69 C81 69.66 81 70.32 81 71 C81.99 71 82.98 71 84 71 C84 71.66 84 72.32 84 73 C84.66 73 85.32 73 86 73 C86 73.66 86 74.32 86 75 C86.66 75 87.32 75 88 75 C88 75.66 88 76.32 88 77 C89.32 77 90.64 77 92 77 C92 77.66 92 78.32 92 79 C92.66 79 93.32 79 94 79 C94.33 80.32 94.66 81.64 95 83 C95.66 83 96.32 83 97 83 C97 83.99 97 84.98 97 86 C98.32 86 99.64 86 101 86 C101 86.66 101 87.32 101 88 C101.66 88 102.32 88 103 88 C103 88.66 103 89.32 103 90 C103.66 90 104.32 90 105 90 C105.33 91.32 105.66 92.64 106 94 C106.66 94 107.32 94 108 94 C108 94.66 108 95.32 108 96 C109.32 96 110.64 96 112 96 C112 96.66 112 97.32 112 98 C112.66 98 113.32 98 114 98 C114 98.66 114 99.32 114 100 C114.66 100 115.32 100 116 100 C116 100.66 116 101.32 116 102 C116.66 102 117.32 102 118 102 C118 102.66 118 103.32 118 104 C118.99 104 119.98 104 121 104 C121 104.66 121 105.32 121 106 C121.66 106 122.32 106 123 106 C123 106.66 123 107.32 123 108 C123.66 108 124.32 108 125 108 C125 108.66 125 109.32 125 110 C126.32 110 127.64 110 129 110 C129.33 111.32 129.66 112.64 130 114 C130.66 114 131.32 114 132 114 C132 114.66 132 115.32 132 116 C132.66 116 133.32 116 134 116 C134 116.66 134 117.32 134 118 C134.66 118 135.32 118 136 118 C136 118.66 136 119.32 136 120 C137.32 120 138.64 120 140 120 C140.33 121.32 140.66 122.64 141 124 C141.66 124 142.32 124 143 124 C143 124.66 143 125.32 143 126 C143.66 126 144.32 126 145 126 C145 126.66 145 127.32 145 128 C146.32 128 147.64 128 149 128 C149 128.66 149 129.32 149 130 C149.66 130 150.32 130 151 130 C151 130.66 151 131.32 151 132 C151.66 132 152.32 132 153 132 C153.33 133.32 153.66 134.64 154 136 C154.66 136 155.32 136 156 136 C156 136.66 156 137.32 156 138 C157.32 138 158.64 138 160 138 C160 138.99 160 139.98 160 141 C160.66 141 161.32 141 162 141 C162 141.66 162 142.32 162 143 C162.66 143 163.32 143 164 143 C164 143.66 164 144.32 164 145 C164.99 145 165.98 145 167 145 C167 145.66 167 146.32 167 147 C167.66 147 168.32 147 169 147 C169 147.66 169 148.32 169 149 C169.66 149 170.32 149 171 149 C171 149.66 171 150.32 171 151 C171.66 151 172.32 151 173 151 C173 151.66 173 152.32 173 153 C173.99 153 174.98 153 176 153 C176 153.66 176 154.32 176 155 C176.66 155 177.32 155 178 155 C178 155.66 178 156.32 178 157 C178.66 157 179.32 157 180 157 C180 157.66 180 158.32 180 159 C180.66 159 181.32 159 182 159 C182 159.66 182 160.32 182 161 C182.66 161 183.32 161 184 161 C184 161.66 184 162.32 184 163 C185.32 163 186.64 163 188 163 C188.33 164.32 188.66 165.64 189 167 C189.66 167 190.32 167 191 167 C191 167.66 191 168.32 191 169 C191.66 169 192.32 169 193 169 C193 169.66 193 170.32 193 171 C194.32 171 195.64 171 197 171 C197 171.66 197 172.32 197 173 C197.66 173 198.32 173 199 173 C199.33 174.32 199.66 175.64 200 177 C201.32 177 202.64 177 204 177 C204 177.66 204 178.32 204 179 C204.66 179 205.32 179 206 179 C206 179.66 206 180.32 206 181 C206.66 181 207.32 181 208 181 C208 181.66 208 182.32 208 183 C208.66 183 209.32 183 210 183 C210.33 184.32 210.66 185.64 211 187 C212.32 187 213.64 187 215 187 C215 187.66 215 188.32 215 189 C215.66 189 216.32 189 217 189 C217 189.66 217 190.32 217 191 C217.66 191 218.32 191 219 191 C219 192.32 219 193.64 219 195 C218.34 195 217.68 195 217 195 C217 195.99 217 196.98 217 198 C216.34 198 215.68 198 215 198 C215 198.66 215 199.32 215 200 C213.68 200 212.36 200 211 200 C210.67 201.32 210.34 202.64 210 204 C209.34 204 208.68 204 208 204 C208 204.66 208 205.32 208 206 C207.34 206 206.68 206 206 206 C206 206.66 206 207.32 206 208 C205.34 208 204.68 208 204 208 C204 208.66 204 209.32 204 210 C202.68 210 201.36 210 200 210 C199.67 211.32 199.34 212.64 199 214 C198.34 214 197.68 214 197 214 C197 214.66 197 215.32 197 216 C196.34 216 195.68 216 195 216 C195 216.66 195 217.32 195 218 C193.68 218 192.36 218 191 218 C191 218.66 191 219.32 191 220 C190.34 220 189.68 220 189 220 C188.67 221.32 188.34 222.64 188 224 C187.34 224 186.68 224 186 224 C186 224.66 186 225.32 186 226 C184.68 226 183.36 226 182 226 C182 226.66 182 227.32 182 228 C181.34 228 180.68 228 180 228 C180 228.66 180 229.32 180 230 C179.34 230 178.68 230 178 230 C178 230.66 178 231.32 178 232 C177.34 232 176.68 232 176 232 C176 232.66 176 233.32 176 234 C175.01 234 174.02 234 173 234 C173 234.66 173 235.32 173 236 C172.34 236 171.68 236 171 236 C171 236.66 171 237.32 171 238 C170.34 238 169.68 238 169 238 C169 238.66 169 239.32 169 240 C168.34 240 167.68 240 167 240 C167 240.66 167 241.32 167 242 C166.34 242 165.68 242 165 242 C165 242.66 165 243.32 165 244 C164.01 244 163.02 244 162 244 C162 244.66 162 245.32 162 246 C161.34 246 160.68 246 160 246 C160 246.66 160 247.32 160 248 C159.34 248 158.68 248 158 248 C158 248.66 158 249.32 158 250 C156.68 250 155.36 250 154 250 C153.67 251.65 153.34 253.3 153 255 C152.34 255 151.68 255 151 255 C151 255.66 151 256.32 151 257 C150.34 257 149.68 257 149 257 C149 257.66 149 258.32 149 259 C148.34 259 147.68 259 147 259 C147 259.66 147 260.32 147 261 C145.68 261 144.36 261 143 261 C143 261.66 143 262.32 143 263 C142.34 263 141.68 263 141 263 C140.67 264.32 140.34 265.64 140 267 C139.34 267 138.68 267 138 267 C138 267.66 138 268.32 138 269 C136.68 269 135.36 269 134 269 C134 269.66 134 270.32 134 271 C133.34 271 132.68 271 132 271 C132 271.66 132 272.32 132 273 C131.34 273 130.68 273 130 273 C129.67 274.32 129.34 275.64 129 277 C127.68 277 126.36 277 125 277 C125 277.66 125 278.32 125 279 C124.34 279 123.68 279 123 279 C123 279.66 123 280.32 123 281 C122.34 281 121.68 281 121 281 C121 281.66 121 282.32 121 283 C120.34 283 119.68 283 119 283 C118.67 284.32 118.34 285.64 118 287 C116.68 287 115.36 287 114 287 C114 287.66 114 288.32 114 289 C113.34 289 112.68 289 112 289 C112 289.66 112 290.32 112 291 C111.34 291 110.68 291 110 291 C110 291.66 110 292.32 110 293 C108.68 293 107.36 293 106 293 C105.67 294.32 105.34 295.64 105 297 C104.34 297 103.68 297 103 297 C103 297.66 103 298.32 103 299 C102.34 299 101.68 299 101 299 C101 299.66 101 300.32 101 301 C100.34 301 99.68 301 99 301 C99 301.66 99 302.32 99 303 C97.68 303 96.36 303 95 303 C94.67 304.32 94.34 305.64 94 307 C93.34 307 92.68 307 92 307 C92 307.99 92 308.98 92 310 C91.34 310 90.68 310 90 310 C90 310.66 90 311.32 90 312 C88.68 312 87.36 312 86 312 C86 312.66 86 313.32 86 314 C85.34 314 84.68 314 84 314 C83.67 315.32 83.34 316.64 83 318 C82.34 318 81.68 318 81 318 C81 318.66 81 319.32 81 320 C80.34 320 79.68 320 79 320 C79 320.66 79 321.32 79 322 C77.68 322 76.36 322 75 322 C75 322.66 75 323.32 75 324 C74.34 324 73.68 324 73 324 C73 324.66 73 325.32 73 326 C72.34 326 71.68 326 71 326 C71 326.66 71 327.32 71 328 C70.01 328 69.02 328 68 328 C68 328.66 68 329.32 68 330 C67.34 330 66.68 330 66 330 C66 330.66 66 331.32 66 332 C65.34 332 64.68 332 64 332 C64 332.66 64 333.32 64 334 C63.34 334 62.68 334 62 334 C62 334.66 62 335.32 62 336 C61.34 336 60.68 336 60 336 C60 336.66 60 337.32 60 338 C59.01 338 58.02 338 57 338 C57 338.66 57 339.32 57 340 C56.34 340 55.68 340 55 340 C55 340.66 55 341.32 55 342 C54.34 342 53.68 342 53 342 C53 342.66 53 343.32 53 344 C52.34 344 51.68 344 51 344 C51 344.66 51 345.32 51 346 C50.34 346 49.68 346 49 346 C49 346.66 49 347.32 49 348 C48.01 348 47.02 348 46 348 C46 348.66 46 349.32 46 350 C45.34 350 44.68 350 44 350 C44 350.66 44 351.32 44 352 C43.34 352 42.68 352 42 352 C42 352.66 42 353.32 42 354 C40.68 354 39.36 354 38 354 C38 354.66 38 355.32 38 356 C37.34 356 36.68 356 36 356 C35.67 357.32 35.34 358.64 35 360 C34.34 360 33.68 360 33 360 C33 360.66 33 361.32 33 362 C32.34 362 31.68 362 31 362 C31 362.66 31 363.32 31 364 C29.68 364 28.36 364 27 364 C27 364.99 27 365.98 27 367 C26.34 367 25.68 367 25 367 C24.67 368.32 24.34 369.64 24 371 C23.34 371 22.68 371 22 371 C22 371.66 22 372.32 22 373 C20.68 373 19.36 373 18 373 C18 373.66 18 374.32 18 375 C17.34 375 16.68 375 16 375 C16 375.66 16 376.32 16 377 C15.34 377 14.68 377 14 377 C13.67 378.32 13.34 379.64 13 381 C12.34 381 11.68 381 11 381 C11 381.66 11 382.32 11 383 C9.68 383 8.36 383 7 383 C7 383.66 7 384.32 7 385 C6.34 385 5.68 385 5 385 C5 385.66 5 386.32 5 387 C4.34 387 3.68 387 3 387 C3 387.66 3 388.32 3 389 C2.01 389 1.02 389 0 389 C0 388.34 0 387.68 0 387 C-0.66 387 -1.32 387 -2 387 C-2 386.34 -2 385.68 -2 385 C-2.66 385 -3.32 385 -4 385 C-4 384.34 -4 383.68 -4 383 C-4.66 383 -5.32 383 -6 383 C-6 382.34 -6 381.68 -6 381 C-6.66 381 -7.32 381 -8 381 C-8 380.34 -8 379.68 -8 379 C-8.66 379 -9.32 379 -10 379 C-10.33 377.68 -10.66 376.36 -11 375 C-11.66 375 -12.32 375 -13 375 C-13 374.34 -13 373.68 -13 373 C-13.66 373 -14.32 373 -15 373 C-15 372.34 -15 371.68 -15 371 C-15.66 371 -16.32 371 -17 371 C-17 370.34 -17 369.68 -17 369 C-17.66 369 -18.32 369 -19 369 C-19 368.34 -19 367.68 -19 367 C-19.66 367 -20.32 367 -21 367 C-21.33 365.35 -21.66 363.7 -22 362 C-22.66 362 -23.32 362 -24 362 C-24 361.34 -24 360.68 -24 360 C-25.32 360 -26.64 360 -28 360 C-28 359.34 -28 358.68 -28 358 C-28.66 358 -29.32 358 -30 358 C-30 357.34 -30 356.68 -30 356 C-30.66 356 -31.32 356 -32 356 C-32 355.34 -32 354.68 -32 354 C-32.66 354 -33.32 354 -34 354 C-34.33 352.68 -34.66 351.36 -35 350 C-35.66 350 -36.32 350 -37 350 C-37 349.34 -37 348.68 -37 348 C-38.32 348 -39.64 348 -41 348 C-41 347.34 -41 346.68 -41 346 C-41.66 346 -42.32 346 -43 346 C-43 345.34 -43 344.68 -43 344 C-43.66 344 -44.32 344 -45 344 C-45 343.34 -45 342.68 -45 342 C-45.99 342 -46.98 342 -48 342 C-48 341.34 -48 340.68 -48 340 C-48.66 340 -49.32 340 -50 340 C-50 339.34 -50 338.68 -50 338 C-50.66 338 -51.32 338 -52 338 C-52 337.34 -52 336.68 -52 336 C-52.66 336 -53.32 336 -54 336 C-54 335.34 -54 334.68 -54 334 C-54.66 334 -55.32 334 -56 334 C-56.33 332.68 -56.66 331.36 -57 330 C-58.32 330 -59.64 330 -61 330 C-61 329.34 -61 328.68 -61 328 C-61.66 328 -62.32 328 -63 328 C-63 327.34 -63 326.68 -63 326 C-63.66 326 -64.32 326 -65 326 C-65 325.34 -65 324.68 -65 324 C-65.66 324 -66.32 324 -67 324 C-67 323.34 -67 322.68 -67 322 C-67.66 322 -68.32 322 -69 322 C-69 321.34 -69 320.68 -69 320 C-69.99 320 -70.98 320 -72 320 C-72 319.34 -72 318.68 -72 318 C-72.66 318 -73.32 318 -74 318 C-74 317.34 -74 316.68 -74 316 C-74.66 316 -75.32 316 -76 316 C-76 315.34 -76 314.68 -76 314 C-76.66 314 -77.32 314 -78 314 C-78 313.34 -78 312.68 -78 312 C-78.66 312 -79.32 312 -80 312 C-80.33 310.35 -80.66 308.7 -81 307 C-82.32 307 -83.64 307 -85 307 C-85 306.34 -85 305.68 -85 305 C-85.66 305 -86.32 305 -87 305 C-87 304.34 -87 303.68 -87 303 C-87.66 303 -88.32 303 -89 303 C-89 302.34 -89 301.68 -89 301 C-89.66 301 -90.32 301 -91 301 C-91 300.34 -91 299.68 -91 299 C-91.99 299 -92.98 299 -94 299 C-94 298.34 -94 297.68 -94 297 C-94.66 297 -95.32 297 -96 297 C-96 296.34 -96 295.68 -96 295 C-96.66 295 -97.32 295 -98 295 C-98 294.34 -98 293.68 -98 293 C-98.66 293 -99.32 293 -100 293 C-100 292.34 -100 291.68 -100 291 C-101.32 291 -102.64 291 -104 291 C-104.33 289.68 -104.66 288.36 -105 287 C-106.32 287 -107.64 287 -109 287 C-109 286.34 -109 285.68 -109 285 C-109.66 285 -110.32 285 -111 285 C-111 284.34 -111 283.68 -111 283 C-111.66 283 -112.32 283 -113 283 C-113 282.34 -113 281.68 -113 281 C-113.66 281 -114.32 281 -115 281 C-115 280.34 -115 279.68 -115 279 C-115.99 279 -116.98 279 -118 279 C-118 278.34 -118 277.68 -118 277 C-119.32 277 -120.64 277 -122 277 C-122 276.34 -122 275.68 -122 275 C-122.66 275 -123.32 275 -124 275 C-124 274.34 -124 273.68 -124 273 C-124.99 273 -125.98 273 -127 273 C-127 272.34 -127 271.68 -127 271 C-127.66 271 -128.32 271 -129 271 C-129 270.34 -129 269.68 -129 269 C-130.32 269 -131.64 269 -133 269 C-133 268.34 -133 267.68 -133 267 C-134.32 267 -135.64 267 -137 267 C-137 266.34 -137 265.68 -137 265 C-137.99 265 -138.98 265 -140 265 C-140 264.34 -140 263.68 -140 263 C-140.66 263 -141.32 263 -142 263 C-142 261.68 -142 260.36 -142 259 C-141.34 259 -140.68 259 -140 259 C-139.505 257.02 -139.505 257.02 -139 255 C-138.34 255 -137.68 255 -137 255 C-137 253.35 -137 251.7 -137 250 C-136.34 250 -135.68 250 -135 250 C-135 249.34 -135 248.68 -135 248 C-134.34 248 -133.68 248 -133 248 C-133 246.68 -133 245.36 -133 244 C-132.34 244 -131.68 244 -131 244 C-131 242.68 -131 241.36 -131 240 C-130.34 240 -129.68 240 -129 240 C-129 238.68 -129 237.36 -129 236 C-128.34 236 -127.68 236 -127 236 C-126.505 232.04 -126.505 232.04 -126 228 C-125.34 228 -124.68 228 -124 228 C-124 226.68 -124 225.36 -124 224 C-123.34 224 -122.68 224 -122 224 C-122 220.7 -122 217.4 -122 214 C-121.34 214 -120.68 214 -120 214 C-120 199.81 -120 185.62 -120 171 C-120.66 171 -121.32 171 -122 171 C-122 168.36 -122 165.72 -122 163 C-122.66 163 -123.32 163 -124 163 C-124 161.02 -124 159.04 -124 157 C-124.66 157 -125.32 157 -126 157 C-126.495 152.05 -126.495 152.05 -127 147 C-127.66 147 -128.32 147 -129 147 C-129 146.34 -129 145.68 -129 145 C-129.66 145 -130.32 145 -131 145 C-131 143.68 -131 142.36 -131 141 C-131.66 141 -132.32 141 -133 141 C-133 139.35 -133 137.7 -133 136 C-133.66 136 -134.32 136 -135 136 C-135 135.34 -135 134.68 -135 134 C-135.66 134 -136.32 134 -137 134 C-137 133.34 -137 132.68 -137 132 C-137.66 132 -138.32 132 -139 132 C-140.125 126.25 -140.125 126.25 -139 124 C-137.68 124 -136.36 124 -135 124 C-135 123.34 -135 122.68 -135 122 C-134.34 122 -133.68 122 -133 122 C-133 121.34 -133 120.68 -133 120 C-131.68 120 -130.36 120 -129 120 C-129 119.34 -129 118.68 -129 118 C-128.01 118 -127.02 118 -126 118 C-126 117.34 -126 116.68 -126 116 C-125.34 116 -124.68 116 -124 116 C-124 115.34 -124 114.68 -124 114 C-123.34 114 -122.68 114 -122 114 C-122 113.34 -122 112.68 -122 112 C-120.68 112 -119.36 112 -118 112 C-118 111.34 -118 110.68 -118 110 C-117.34 110 -116.68 110 -116 110 C-116 109.34 -116 108.68 -116 108 C-115.01 108 -114.02 108 -113 108 C-113 107.34 -113 106.68 -113 106 C-112.34 106 -111.68 106 -111 106 C-111 105.34 -111 104.68 -111 104 C-109.68 104 -108.36 104 -107 104 C-107 103.34 -107 102.68 -107 102 C-106.34 102 -105.68 102 -105 102 C-104.505 100.02 -104.505 100.02 -104 98 C-102.68 98 -101.36 98 -100 98 C-100 97.34 -100 96.68 -100 96 C-99.34 96 -98.68 96 -98 96 C-98 95.34 -98 94.68 -98 94 C-97.34 94 -96.68 94 -96 94 C-96 93.34 -96 92.68 -96 92 C-94.68 92 -93.36 92 -92 92 C-91.505 90.02 -91.505 90.02 -91 88 C-90.34 88 -89.68 88 -89 88 C-89 87.34 -89 86.68 -89 86 C-88.34 86 -87.68 86 -87 86 C-87 85.01 -87 84.02 -87 83 C-85.68 83 -84.36 83 -83 83 C-83 82.34 -83 81.68 -83 81 C-82.34 81 -81.68 81 -81 81 C-80.505 79.02 -80.505 79.02 -80 77 C-79.34 77 -78.68 77 -78 77 C-78 76.34 -78 75.68 -78 75 C-77.34 75 -76.68 75 -76 75 C-76 74.34 -76 73.68 -76 73 C-74.68 73 -73.36 73 -72 73 C-72 72.34 -72 71.68 -72 71 C-71.34 71 -70.68 71 -70 71 C-69.505 69.02 -69.505 69.02 -69 67 C-68.34 67 -67.68 67 -67 67 C-67 66.34 -67 65.68 -67 65 C-66.34 65 -65.68 65 -65 65 C-65 64.34 -65 63.68 -65 63 C-63.68 63 -62.36 63 -61 63 C-61 62.34 -61 61.68 -61 61 C-60.34 61 -59.68 61 -59 61 C-59 60.34 -59 59.68 -59 59 C-58.34 59 -57.68 59 -57 59 C-56.67 57.68 -56.34 56.36 -56 55 C-55.34 55 -54.68 55 -54 55 C-54 54.34 -54 53.68 -54 53 C-53.34 53 -52.68 53 -52 53 C-52 52.34 -52 51.68 -52 51 C-50.68 51 -49.36 51 -48 51 C-48 50.34 -48 49.68 -48 49 C-47.34 49 -46.68 49 -46 49 C-45.67 47.68 -45.34 46.36 -45 45 C-44.34 45 -43.68 45 -43 45 C-43 44.34 -43 43.68 -43 43 C-42.34 43 -41.68 43 -41 43 C-41 42.34 -41 41.68 -41 41 C-39.68 41 -38.36 41 -37 41 C-37 40.34 -37 39.68 -37 39 C-36.34 39 -35.68 39 -35 39 C-34.67 37.68 -34.34 36.36 -34 35 C-33.34 35 -32.68 35 -32 35 C-32 34.34 -32 33.68 -32 33 C-31.34 33 -30.68 33 -30 33 C-30 32.34 -30 31.68 -30 31 C-28.68 31 -27.36 31 -26 31 C-26 30.34 -26 29.68 -26 29 C-25.34 29 -24.68 29 -24 29 C-24 28.01 -24 27.02 -24 26 C-23.34 26 -22.68 26 -22 26 C-21.67 24.68 -21.34 23.36 -21 22 C-20.34 22 -19.68 22 -19 22 C-19 21.34 -19 20.68 -19 20 C-18.34 20 -17.68 20 -17 20 C-17 19.34 -17 18.68 -17 18 C-16.34 18 -15.68 18 -15 18 C-15 17.34 -15 16.68 -15 16 C-14.34 16 -13.68 16 -13 16 C-13 15.34 -13 14.68 -13 14 C-12.34 14 -11.68 14 -11 14 C-10.67 12.68 -10.34 11.36 -10 10 C-9.34 10 -8.68 10 -8 10 C-8 9.34 -8 8.68 -8 8 C-7.34 8 -6.68 8 -6 8 C-6 7.34 -6 6.68 -6 6 C-5.34 6 -4.68 6 -4 6 C-4 5.34 -4 4.68 -4 4 C-3.34 4 -2.68 4 -2 4 C-2 3.34 -2 2.68 -2 2 C-1.34 2 -0.68 2 0 2 C0 1.34 0 0.68 0 0 Z " fill="#118CEF" transform="translate(710,340)"/>
<path d="M0 0 C1.65 0 3.3 0 5 0 C5 0.66 5 1.32 5 2 C5.66 2 6.32 2 7 2 C7 2.66 7 3.32 7 4 C7.66 4 8.32 4 9 4 C9 4.66 9 5.32 9 6 C9.66 6 10.32 6 11 6 C11 6.66 11 7.32 11 8 C12.32 8 13.64 8 15 8 C15 8.66 15 9.32 15 10 C15.66 10 16.32 10 17 10 C17 10.66 17 11.32 17 12 C17.99 12 18.98 12 20 12 C20 12.66 20 13.32 20 14 C21.32 14 22.64 14 24 14 C24 14.66 24 15.32 24 16 C25.32 16 26.64 16 28 16 C28 16.66 28 17.32 28 18 C28.99 18 29.98 18 31 18 C31 18.66 31 19.32 31 20 C33.64 20 36.28 20 39 20 C39 20.66 39 21.32 39 22 C40.65 22 42.3 22 44 22 C44 22.66 44 23.32 44 24 C56.21 24 68.42 24 81 24 C81 23.34 81 22.68 81 22 C83.31 22 85.62 22 88 22 C88 21.34 88 20.68 88 20 C90.64 20 93.28 20 96 20 C96 19.34 96 18.68 96 18 C96.99 18 97.98 18 99 18 C99 17.34 99 16.68 99 16 C100.32 16 101.64 16 103 16 C103 15.34 103 14.68 103 14 C104.32 14 105.64 14 107 14 C107 13.34 107 12.68 107 12 C108.65 12 110.3 12 112 12 C112 11.34 112 10.68 112 10 C112.66 10 113.32 10 114 10 C114 9.34 114 8.68 114 8 C115.32 8 116.64 8 118 8 C118 7.34 118 6.68 118 6 C118.66 6 119.32 6 120 6 C120 5.34 120 4.68 120 4 C120.66 4 121.32 4 122 4 C122 3.34 122 2.68 122 2 C122.99 2 123.98 2 125 2 C125 3.32 125 4.64 125 6 C125.66 6 126.32 6 127 6 C127 6.66 127 7.32 127 8 C127.66 8 128.32 8 129 8 C129 9.32 129 10.64 129 12 C129.66 12 130.32 12 131 12 C131 13.32 131 14.64 131 16 C131.66 16 132.32 16 133 16 C133.33 17.98 133.66 19.96 134 22 C134.66 22 135.32 22 136 22 C136 22.66 136 23.32 136 24 C136.66 24 137.32 24 138 24 C138 25.32 138 26.64 138 28 C138.66 28 139.32 28 140 28 C140 28.66 140 29.32 140 30 C140.66 30 141.32 30 142 30 C142 31.32 142 32.64 142 34 C142.66 34 143.32 34 144 34 C144 34.66 144 35.32 144 36 C144.66 36 145.32 36 146 36 C146.33 38.31 146.66 40.62 147 43 C147.66 43 148.32 43 149 43 C149 43.66 149 44.32 149 45 C149.66 45 150.32 45 151 45 C151 45.66 151 46.32 151 47 C151.66 47 152.32 47 153 47 C153 47.66 153 48.32 153 49 C153.66 49 154.32 49 155 49 C155 50.32 155 51.64 155 53 C155.66 53 156.32 53 157 53 C157.33 54.32 157.66 55.64 158 57 C158.66 57 159.32 57 160 57 C160 57.66 160 58.32 160 59 C160.66 59 161.32 59 162 59 C162 60.32 162 61.64 162 63 C162.66 63 163.32 63 164 63 C164 63.66 164 64.32 164 65 C164.66 65 165.32 65 166 65 C166 65.66 166 66.32 166 67 C166.66 67 167.32 67 168 67 C168.33 68.98 168.66 70.96 169 73 C169.66 73 170.32 73 171 73 C171 73.66 171 74.32 171 75 C171.66 75 172.32 75 173 75 C173 75.66 173 76.32 173 77 C173.66 77 174.32 77 175 77 C175 77.66 175 78.32 175 79 C175.66 79 176.32 79 177 79 C177 79.66 177 80.32 177 81 C177.66 81 178.32 81 179 81 C179 82.32 179 83.64 179 85 C179.66 85 180.32 85 181 85 C181.33 86.32 181.66 87.64 182 89 C182.66 89 183.32 89 184 89 C184 89.66 184 90.32 184 91 C184.66 91 185.32 91 186 91 C186 91.66 186 92.32 186 93 C186.66 93 187.32 93 188 93 C188 93.66 188 94.32 188 95 C188.66 95 189.32 95 190 95 C190 96.65 190 98.3 190 100 C190.66 100 191.32 100 192 100 C192.33 101.32 192.66 102.64 193 104 C193.66 104 194.32 104 195 104 C195 104.66 195 105.32 195 106 C195.66 106 196.32 106 197 106 C197 106.66 197 107.32 197 108 C197.66 108 198.32 108 199 108 C199 108.66 199 109.32 199 110 C199.66 110 200.32 110 201 110 C201 111.32 201 112.64 201 114 C201.66 114 202.32 114 203 114 C203.33 115.32 203.66 116.64 204 118 C204.66 118 205.32 118 206 118 C206 118.66 206 119.32 206 120 C206.66 120 207.32 120 208 120 C208 120.66 208 121.32 208 122 C208.66 122 209.32 122 210 122 C210 123.32 210 124.64 210 126 C210.66 126 211.32 126 212 126 C212 126.66 212 127.32 212 128 C212.66 128 213.32 128 214 128 C214 128.66 214 129.32 214 130 C214.66 130 215.32 130 216 130 C216.33 131.32 216.66 132.64 217 134 C217.66 134 218.32 134 219 134 C219 134.66 219 135.32 219 136 C219.66 136 220.32 136 221 136 C221 136.66 221 137.32 221 138 C221.66 138 222.32 138 223 138 C223 139.32 223 140.64 223 142 C223.66 142 224.32 142 225 142 C225 142.66 225 143.32 225 144 C225.66 144 226.32 144 227 144 C227.33 145.32 227.66 146.64 228 148 C228.66 148 229.32 148 230 148 C230 148.66 230 149.32 230 150 C230.66 150 231.32 150 232 150 C232 150.66 232 151.32 232 152 C232.66 152 233.32 152 234 152 C234 152.99 234 153.98 234 155 C234.66 155 235.32 155 236 155 C236 155.66 236 156.32 236 157 C236.66 157 237.32 157 238 157 C239.125 160.75 239.125 160.75 238 163 C237.34 163 236.68 163 236 163 C236 163.66 236 164.32 236 165 C235.34 165 234.68 165 234 165 C234 166.32 234 167.64 234 169 C233.34 169 232.68 169 232 169 C232 169.66 232 170.32 232 171 C231.34 171 230.68 171 230 171 C230 171.66 230 172.32 230 173 C229.34 173 228.68 173 228 173 C227.67 174.98 227.34 176.96 227 179 C226.34 179 225.68 179 225 179 C225 179.66 225 180.32 225 181 C224.34 181 223.68 181 223 181 C223 181.66 223 182.32 223 183 C222.34 183 221.68 183 221 183 C221 184.32 221 185.64 221 187 C220.34 187 219.68 187 219 187 C219 187.66 219 188.32 219 189 C218.34 189 217.68 189 217 189 C216.67 190.32 216.34 191.64 216 193 C215.34 193 214.68 193 214 193 C214 193.66 214 194.32 214 195 C213.34 195 212.68 195 212 195 C212 195.66 212 196.32 212 197 C211.34 197 210.68 197 210 197 C210 198.32 210 199.64 210 201 C209.34 201 208.68 201 208 201 C208 201.66 208 202.32 208 203 C207.34 203 206.68 203 206 203 C206 203.66 206 204.32 206 205 C205.34 205 204.68 205 204 205 C203.67 207.31 203.34 209.62 203 212 C202.34 212 201.68 212 201 212 C201 212.66 201 213.32 201 214 C200.34 214 199.68 214 199 214 C199 214.66 199 215.32 199 216 C198.34 216 197.68 216 197 216 C197 216.66 197 217.32 197 218 C196.34 218 195.68 218 195 218 C195 218.66 195 219.32 195 220 C194.34 220 193.68 220 193 220 C192.67 221.98 192.34 223.96 192 226 C191.34 226 190.68 226 190 226 C190 226.66 190 227.32 190 228 C189.34 228 188.68 228 188 228 C188 229.32 188 230.64 188 232 C187.34 232 186.68 232 186 232 C186 232.66 186 233.32 186 234 C185.34 234 184.68 234 184 234 C184 234.66 184 235.32 184 236 C183.34 236 182.68 236 182 236 C181.67 237.98 181.34 239.96 181 242 C180.34 242 179.68 242 179 242 C179 242.66 179 243.32 179 244 C178.34 244 177.68 244 177 244 C177 244.66 177 245.32 177 246 C176.34 246 175.68 246 175 246 C175 246.66 175 247.32 175 248 C174.34 248 173.68 248 173 248 C173 248.66 173 249.32 173 250 C172.34 250 171.68 250 171 250 C171 251.32 171 252.64 171 254 C170.34 254 169.68 254 169 254 C168.67 255.32 168.34 256.64 168 258 C167.34 258 166.68 258 166 258 C166 258.66 166 259.32 166 260 C165.34 260 164.68 260 164 260 C164 260.66 164 261.32 164 262 C163.34 262 162.68 262 162 262 C162 263.65 162 265.3 162 267 C161.34 267 160.68 267 160 267 C160 267.66 160 268.32 160 269 C159.34 269 158.68 269 158 269 C157.67 270.32 157.34 271.64 157 273 C156.34 273 155.68 273 155 273 C155 274.32 155 275.64 155 277 C154.34 277 153.68 277 153 277 C153 277.66 153 278.32 153 279 C152.34 279 151.68 279 151 279 C151 279.66 151 280.32 151 281 C150.34 281 149.68 281 149 281 C149 281.66 149 282.32 149 283 C148.34 283 147.68 283 147 283 C146.67 284.98 146.34 286.96 146 289 C145.34 289 144.68 289 144 289 C144 289.66 144 290.32 144 291 C143.34 291 142.68 291 142 291 C142 291.66 142 292.32 142 293 C141.34 293 140.68 293 140 293 C140 294.32 140 295.64 140 297 C139.34 297 138.68 297 138 297 C138 297.66 138 298.32 138 299 C137.34 299 136.68 299 136 299 C136 299.66 136 300.32 136 301 C135.34 301 134.68 301 134 301 C133.67 302.98 133.34 304.96 133 307 C132.34 307 131.68 307 131 307 C131 307.66 131 308.32 131 309 C130.34 309 129.68 309 129 309 C129 309.66 129 310.32 129 311 C128.34 311 127.68 311 127 311 C127 311.66 127 312.32 127 313 C126.34 313 125.68 313 125 313 C125 314.32 125 315.64 125 317 C124.34 317 123.68 317 123 317 C122.67 318.32 122.34 319.64 122 321 C121.34 321 120.68 321 120 321 C120 321.99 120 322.98 120 324 C119.34 324 118.68 324 118 324 C118 325.32 118 326.64 118 328 C117.34 328 116.68 328 116 328 C116 328.66 116 329.32 116 330 C115.34 330 114.68 330 114 330 C114 330.66 114 331.32 114 332 C113.34 332 112.68 332 112 332 C111.67 333.32 111.34 334.64 111 336 C110.34 336 109.68 336 109 336 C109 337.32 109 338.64 109 340 C108.34 340 107.68 340 107 340 C107 340.66 107 341.32 107 342 C106.34 342 105.68 342 105 342 C105 342.66 105 343.32 105 344 C104.34 344 103.68 344 103 344 C103 344.66 103 345.32 103 346 C102.34 346 101.68 346 101 346 C101 346.66 101 347.32 101 348 C100.34 348 99.68 348 99 348 C98.67 349.98 98.34 351.96 98 354 C97.34 354 96.68 354 96 354 C96 354.66 96 355.32 96 356 C95.34 356 94.68 356 94 356 C94 356.66 94 357.32 94 358 C93.34 358 92.68 358 92 358 C92 358.66 92 359.32 92 360 C91.34 360 90.68 360 90 360 C90 361.32 90 362.64 90 364 C89.34 364 88.68 364 88 364 C87.67 365.32 87.34 366.64 87 368 C86.34 368 85.68 368 85 368 C85 369.32 85 370.64 85 372 C84.34 372 83.68 372 83 372 C83 372.66 83 373.32 83 374 C82.34 374 81.68 374 81 374 C81 374.66 81 375.32 81 376 C80.34 376 79.68 376 79 376 C79 376.66 79 377.32 79 378 C78.34 378 77.68 378 77 378 C76.67 380.31 76.34 382.62 76 385 C75.34 385 74.68 385 74 385 C74 385.66 74 386.32 74 387 C73.34 387 72.68 387 72 387 C72 387.66 72 388.32 72 389 C71.34 389 70.68 389 70 389 C70 389.66 70 390.32 70 391 C69.34 391 68.68 391 68 391 C68 392.32 68 393.64 68 395 C67.34 395 66.68 395 66 395 C66 395.66 66 396.32 66 397 C63.69 397 61.38 397 59 397 C59 395.68 59 394.36 59 393 C58.34 393 57.68 393 57 393 C57 392.34 57 391.68 57 391 C56.34 391 55.68 391 55 391 C55 390.34 55 389.68 55 389 C54.34 389 53.68 389 53 389 C52.67 387.02 52.34 385.04 52 383 C51.34 383 50.68 383 50 383 C50 382.34 50 381.68 50 381 C49.34 381 48.68 381 48 381 C48 380.01 48 379.02 48 378 C47.34 378 46.68 378 46 378 C46 377.34 46 376.68 46 376 C45.34 376 44.68 376 44 376 C44 374.68 44 373.36 44 372 C43.34 372 42.68 372 42 372 C42 371.34 42 370.68 42 370 C41.34 370 40.68 370 40 370 C39.67 368.02 39.34 366.04 39 364 C38.34 364 37.68 364 37 364 C37 363.34 37 362.68 37 362 C36.34 362 35.68 362 35 362 C35 361.34 35 360.68 35 360 C34.34 360 33.68 360 33 360 C33 358.68 33 357.36 33 356 C32.34 356 31.68 356 31 356 C31 355.34 31 354.68 31 354 C30.34 354 29.68 354 29 354 C28.67 352.68 28.34 351.36 28 350 C27.34 350 26.68 350 26 350 C26 348.68 26 347.36 26 346 C25.34 346 24.68 346 24 346 C24 345.34 24 344.68 24 344 C23.34 344 22.68 344 22 344 C22 343.34 22 342.68 22 342 C21.34 342 20.68 342 20 342 C20 341.34 20 340.68 20 340 C19.34 340 18.68 340 18 340 C17.67 338.02 17.34 336.04 17 334 C16.34 334 15.68 334 15 334 C15 333.34 15 332.68 15 332 C14.34 332 13.68 332 13 332 C13 331.34 13 330.68 13 330 C12.34 330 11.68 330 11 330 C11 329.34 11 328.68 11 328 C10.34 328 9.68 328 9 328 C9 327.34 9 326.68 9 326 C8.34 326 7.68 326 7 326 C7 324.35 7 322.7 7 321 C6.34 321 5.68 321 5 321 C4.67 319.02 4.34 317.04 4 315 C3.34 315 2.68 315 2 315 C2 314.34 2 313.68 2 313 C1.34 313 0.68 313 0 313 C0 312.34 0 311.68 0 311 C-0.66 311 -1.32 311 -2 311 C-2 310.34 -2 309.68 -2 309 C-2.66 309 -3.32 309 -4 309 C-4 308.34 -4 307.68 -4 307 C-4.66 307 -5.32 307 -6 307 C-6.33 305.02 -6.66 303.04 -7 301 C-7.66 301 -8.32 301 -9 301 C-9 300.34 -9 299.68 -9 299 C-9.66 299 -10.32 299 -11 299 C-11 298.34 -11 297.68 -11 297 C-11.66 297 -12.32 297 -13 297 C-13 295.68 -13 294.36 -13 293 C-13.66 293 -14.32 293 -15 293 C-15 292.34 -15 291.68 -15 291 C-15.66 291 -16.32 291 -17 291 C-17.33 289.68 -17.66 288.36 -18 287 C-18.66 287 -19.32 287 -20 287 C-20 285.68 -20 284.36 -20 283 C-20.66 283 -21.32 283 -22 283 C-22 282.34 -22 281.68 -22 281 C-22.66 281 -23.32 281 -24 281 C-24 280.34 -24 279.68 -24 279 C-24.66 279 -25.32 279 -26 279 C-26 278.34 -26 277.68 -26 277 C-26.66 277 -27.32 277 -28 277 C-28 275.68 -28 274.36 -28 273 C-28.66 273 -29.32 273 -30 273 C-30.33 271.68 -30.66 270.36 -31 269 C-31.66 269 -32.32 269 -33 269 C-33 268.34 -33 267.68 -33 267 C-33.66 267 -34.32 267 -35 267 C-35 265.35 -35 263.7 -35 262 C-35.66 262 -36.32 262 -37 262 C-37 261.34 -37 260.68 -37 260 C-37.66 260 -38.32 260 -39 260 C-39 259.34 -39 258.68 -39 258 C-39.66 258 -40.32 258 -41 258 C-41.33 256.02 -41.66 254.04 -42 252 C-42.66 252 -43.32 252 -44 252 C-44 251.34 -44 250.68 -44 250 C-44.66 250 -45.32 250 -46 250 C-46 249.34 -46 248.68 -46 248 C-46.66 248 -47.32 248 -48 248 C-48 247.34 -48 246.68 -48 246 C-48.66 246 -49.32 246 -50 246 C-50 244.68 -50 243.36 -50 242 C-50.66 242 -51.32 242 -52 242 C-52.33 240.68 -52.66 239.36 -53 238 C-53.66 238 -54.32 238 -55 238 C-55 237.34 -55 236.68 -55 236 C-55.66 236 -56.32 236 -57 236 C-57 234.68 -57 233.36 -57 232 C-57.66 232 -58.32 232 -59 232 C-59 231.34 -59 230.68 -59 230 C-59.66 230 -60.32 230 -61 230 C-61 229.34 -61 228.68 -61 228 C-61.66 228 -62.32 228 -63 228 C-63 227.34 -63 226.68 -63 226 C-63.66 226 -64.32 226 -65 226 C-65.33 224.02 -65.66 222.04 -66 220 C-66.66 220 -67.32 220 -68 220 C-68 219.34 -68 218.68 -68 218 C-68.66 218 -69.32 218 -70 218 C-70 217.34 -70 216.68 -70 216 C-70.66 216 -71.32 216 -72 216 C-72 215.34 -72 214.68 -72 214 C-72.66 214 -73.32 214 -74 214 C-74 212.35 -74 210.7 -74 209 C-74.66 209 -75.32 209 -76 209 C-76.33 207.68 -76.66 206.36 -77 205 C-77.66 205 -78.32 205 -79 205 C-79 203.68 -79 202.36 -79 201 C-79.66 201 -80.32 201 -81 201 C-81 200.34 -81 199.68 -81 199 C-81.66 199 -82.32 199 -83 199 C-83 198.34 -83 197.68 -83 197 C-83.66 197 -84.32 197 -85 197 C-85 196.34 -85 195.68 -85 195 C-85.66 195 -86.32 195 -87 195 C-87.33 193.02 -87.66 191.04 -88 189 C-88.66 189 -89.32 189 -90 189 C-90 188.34 -90 187.68 -90 187 C-90.66 187 -91.32 187 -92 187 C-92 186.34 -92 185.68 -92 185 C-92.66 185 -93.32 185 -94 185 C-94 183.68 -94 182.36 -94 181 C-94.66 181 -95.32 181 -96 181 C-96 180.34 -96 179.68 -96 179 C-96.66 179 -97.32 179 -98 179 C-98 178.34 -98 177.68 -98 177 C-98.66 177 -99.32 177 -100 177 C-100.33 175.02 -100.66 173.04 -101 171 C-101.66 171 -102.32 171 -103 171 C-103 170.34 -103 169.68 -103 169 C-103.66 169 -104.32 169 -105 169 C-105 168.34 -105 167.68 -105 167 C-105.66 167 -106.32 167 -107 167 C-107 166.34 -107 165.68 -107 165 C-107.66 165 -108.32 165 -109 165 C-109 163.68 -109 162.36 -109 161 C-109.66 161 -110.32 161 -111 161 C-111.33 159.02 -111.66 157.04 -112 155 C-111.01 155 -110.02 155 -109 155 C-109 154.01 -109 153.02 -109 152 C-108.34 152 -107.68 152 -107 152 C-107 151.34 -107 150.68 -107 150 C-106.34 150 -105.68 150 -105 150 C-105 149.34 -105 148.68 -105 148 C-104.34 148 -103.68 148 -103 148 C-103 147.34 -103 146.68 -103 146 C-102.34 146 -101.68 146 -101 146 C-100.505 144.02 -100.505 144.02 -100 142 C-99.34 142 -98.68 142 -98 142 C-98 141.34 -98 140.68 -98 140 C-97.34 140 -96.68 140 -96 140 C-96 139.34 -96 138.68 -96 138 C-95.34 138 -94.68 138 -94 138 C-94 137.34 -94 136.68 -94 136 C-93.34 136 -92.68 136 -92 136 C-92 135.34 -92 134.68 -92 134 C-91.34 134 -90.68 134 -90 134 C-90 133.34 -90 132.68 -90 132 C-89.34 132 -88.68 132 -88 132 C-87.67 130.68 -87.34 129.36 -87 128 C-86.34 128 -85.68 128 -85 128 C-85 127.34 -85 126.68 -85 126 C-84.34 126 -83.68 126 -83 126 C-83 124.68 -83 123.36 -83 122 C-82.34 122 -81.68 122 -81 122 C-81 121.34 -81 120.68 -81 120 C-80.34 120 -79.68 120 -79 120 C-79 119.34 -79 118.68 -79 118 C-78.34 118 -77.68 118 -77 118 C-76.67 116.02 -76.34 114.04 -76 112 C-75.34 112 -74.68 112 -74 112 C-74 111.34 -74 110.68 -74 110 C-73.34 110 -72.68 110 -72 110 C-72 109.34 -72 108.68 -72 108 C-71.34 108 -70.68 108 -70 108 C-70 107.34 -70 106.68 -70 106 C-69.34 106 -68.68 106 -68 106 C-68 104.68 -68 103.36 -68 102 C-67.34 102 -66.68 102 -66 102 C-65.505 100.02 -65.505 100.02 -65 98 C-64.34 98 -63.68 98 -63 98 C-63 97.01 -63 96.02 -63 95 C-62.34 95 -61.68 95 -61 95 C-61 94.34 -61 93.68 -61 93 C-60.34 93 -59.68 93 -59 93 C-59 91.68 -59 90.36 -59 89 C-58.34 89 -57.68 89 -57 89 C-57 88.34 -57 87.68 -57 87 C-56.34 87 -55.68 87 -55 87 C-55 86.34 -55 85.68 -55 85 C-54.34 85 -53.68 85 -53 85 C-52.505 83.02 -52.505 83.02 -52 81 C-51.34 81 -50.68 81 -50 81 C-50 80.34 -50 79.68 -50 79 C-49.34 79 -48.68 79 -48 79 C-48 77.68 -48 76.36 -48 75 C-47.34 75 -46.68 75 -46 75 C-46 74.34 -46 73.68 -46 73 C-45.34 73 -44.68 73 -44 73 C-44 72.34 -44 71.68 -44 71 C-43.34 71 -42.68 71 -42 71 C-41.505 69.02 -41.505 69.02 -41 67 C-40.34 67 -39.68 67 -39 67 C-39 65.68 -39 64.36 -39 63 C-38.34 63 -37.68 63 -37 63 C-37 62.34 -37 61.68 -37 61 C-36.34 61 -35.68 61 -35 61 C-35 60.34 -35 59.68 -35 59 C-34.34 59 -33.68 59 -33 59 C-33 57.68 -33 56.36 -33 55 C-32.34 55 -31.68 55 -31 55 C-30.67 53.68 -30.34 52.36 -30 51 C-29.34 51 -28.68 51 -28 51 C-28 50.34 -28 49.68 -28 49 C-27.34 49 -26.68 49 -26 49 C-26 47.68 -26 46.36 -26 45 C-25.34 45 -24.68 45 -24 45 C-24 44.34 -24 43.68 -24 43 C-23.34 43 -22.68 43 -22 43 C-22 42.34 -22 41.68 -22 41 C-21.34 41 -20.68 41 -20 41 C-20 39.35 -20 37.7 -20 36 C-19.34 36 -18.68 36 -18 36 C-17.67 34.02 -17.34 32.04 -17 30 C-16.34 30 -15.68 30 -15 30 C-15 29.34 -15 28.68 -15 28 C-14.34 28 -13.68 28 -13 28 C-13 26.68 -13 25.36 -13 24 C-12.34 24 -11.68 24 -11 24 C-11 23.34 -11 22.68 -11 22 C-10.34 22 -9.68 22 -9 22 C-9 20.68 -9 19.36 -9 18 C-8.34 18 -7.68 18 -7 18 C-6.67 16.02 -6.34 14.04 -6 12 C-5.34 12 -4.68 12 -4 12 C-4 10.68 -4 9.36 -4 8 C-3.34 8 -2.68 8 -2 8 C-2 6.68 -2 5.36 -2 4 C-1.34 4 -0.68 4 0 4 C0 2.68 0 1.36 0 0 Z " fill="#118CEF" transform="translate(437,609)"/>
<path d="M0 0 C0.99 0 1.98 0 3 0 C3 0.66 3 1.32 3 2 C3.66 2 4.32 2 5 2 C5 2.66 5 3.32 5 4 C5.66 4 6.32 4 7 4 C7 4.66 7 5.32 7 6 C7.66 6 8.32 6 9 6 C9 6.66 9 7.32 9 8 C9.66 8 10.32 8 11 8 C11 9.32 11 10.64 11 12 C11.66 12 12.32 12 13 12 C13 12.66 13 13.32 13 14 C13.66 14 14.32 14 15 14 C15.33 15.32 15.66 16.64 16 18 C16.66 18 17.32 18 18 18 C18 19.32 18 20.64 18 22 C18.66 22 19.32 22 20 22 C20 22.66 20 23.32 20 24 C20.66 24 21.32 24 22 24 C22 24.99 22 25.98 22 27 C22.66 27 23.32 27 24 27 C24 27.66 24 28.32 24 29 C24.66 29 25.32 29 26 29 C26.33 30.98 26.66 32.96 27 35 C27.66 35 28.32 35 29 35 C29 35.66 29 36.32 29 37 C29.66 37 30.32 37 31 37 C31 37.66 31 38.32 31 39 C31.66 39 32.32 39 33 39 C33 40.32 33 41.64 33 43 C33.66 43 34.32 43 35 43 C35 43.66 35 44.32 35 45 C35.66 45 36.32 45 37 45 C37.33 46.32 37.66 47.64 38 49 C38.66 49 39.32 49 40 49 C40 49.66 40 50.32 40 51 C40.66 51 41.32 51 42 51 C42 52.32 42 53.64 42 55 C42.66 55 43.32 55 44 55 C44 55.66 44 56.32 44 57 C44.66 57 45.32 57 46 57 C46 57.66 46 58.32 46 59 C46.66 59 47.32 59 48 59 C48 59.66 48 60.32 48 61 C48.66 61 49.32 61 50 61 C50.33 62.98 50.66 64.96 51 67 C51.66 67 52.32 67 53 67 C53 67.66 53 68.32 53 69 C53.66 69 54.32 69 55 69 C55 69.66 55 70.32 55 71 C55.66 71 56.32 71 57 71 C57 72.32 57 73.64 57 75 C57.66 75 58.32 75 59 75 C59 75.66 59 76.32 59 77 C59.66 77 60.32 77 61 77 C61.33 79.31 61.66 81.62 62 84 C62.66 84 63.32 84 64 84 C64 84.66 64 85.32 64 86 C64.66 86 65.32 86 66 86 C66 86.66 66 87.32 66 88 C66.66 88 67.32 88 68 88 C68 88.66 68 89.32 68 90 C68.66 90 69.32 90 70 90 C70 90.66 70 91.32 70 92 C70.66 92 71.32 92 72 92 C72.33 93.98 72.66 95.96 73 98 C73.66 98 74.32 98 75 98 C75 98.66 75 99.32 75 100 C75.66 100 76.32 100 77 100 C77 100.66 77 101.32 77 102 C77.66 102 78.32 102 79 102 C79 102.66 79 103.32 79 104 C79.66 104 80.32 104 81 104 C81 105.32 81 106.64 81 108 C81.66 108 82.32 108 83 108 C83 108.66 83 109.32 83 110 C83.66 110 84.32 110 85 110 C85.33 111.32 85.66 112.64 86 114 C86.66 114 87.32 114 88 114 C88 115.32 88 116.64 88 118 C88.66 118 89.32 118 90 118 C90 118.66 90 119.32 90 120 C90.66 120 91.32 120 92 120 C92 120.66 92 121.32 92 122 C92.66 122 93.32 122 94 122 C94 122.66 94 123.32 94 124 C94.66 124 95.32 124 96 124 C96.33 125.98 96.66 127.96 97 130 C97.66 130 98.32 130 99 130 C99 130.66 99 131.32 99 132 C99.66 132 100.32 132 101 132 C101 132.66 101 133.32 101 134 C101.66 134 102.32 134 103 134 C103 134.66 103 135.32 103 136 C103.66 136 104.32 136 105 136 C105 137.65 105 139.3 105 141 C105.66 141 106.32 141 107 141 C107.33 142.32 107.66 143.64 108 145 C108.66 145 109.32 145 110 145 C110 145.66 110 146.32 110 147 C110.66 147 111.32 147 112 147 C112 148.32 112 149.64 112 151 C112.66 151 113.32 151 114 151 C114 151.66 114 152.32 114 153 C114.66 153 115.32 153 116 153 C116 153.66 116 154.32 116 155 C116.66 155 117.32 155 118 155 C118 155.66 118 156.32 118 157 C118.66 157 119.32 157 120 157 C120.33 158.98 120.66 160.96 121 163 C121.66 163 122.32 163 123 163 C123 163.66 123 164.32 123 165 C123.66 165 124.32 165 125 165 C125 165.66 125 166.32 125 167 C125.66 167 126.32 167 127 167 C127 168.32 127 169.64 127 171 C127.66 171 128.32 171 129 171 C129 171.66 129 172.32 129 173 C129.66 173 130.32 173 131 173 C131.33 174.32 131.66 175.64 132 177 C132.66 177 133.32 177 134 177 C134 177.66 134 178.32 134 179 C134.66 179 135.32 179 136 179 C136 180.32 136 181.64 136 183 C136.66 183 137.32 183 138 183 C138 183.66 138 184.32 138 185 C138.66 185 139.32 185 140 185 C140 185.66 140 186.32 140 187 C140.66 187 141.32 187 142 187 C142.33 188.32 142.66 189.64 143 191 C143.66 191 144.32 191 145 191 C145 192.65 145 194.3 145 196 C145.66 196 146.32 196 147 196 C147 196.66 147 197.32 147 198 C147.66 198 148.32 198 149 198 C149 198.66 149 199.32 149 200 C149.66 200 150.32 200 151 200 C151 201.32 151 202.64 151 204 C151.66 204 152.32 204 153 204 C153 204.66 153 205.32 153 206 C153.66 206 154.32 206 155 206 C155.33 207.32 155.66 208.64 156 210 C156.66 210 157.32 210 158 210 C158 210.66 158 211.32 158 212 C158.66 212 159.32 212 160 212 C160 213.32 160 214.64 160 216 C160.66 216 161.32 216 162 216 C162 216.66 162 217.32 162 218 C162.66 218 163.32 218 164 218 C164 218.66 164 219.32 164 220 C164.66 220 165.32 220 166 220 C166.33 221.98 166.66 223.96 167 226 C167.66 226 168.32 226 169 226 C169 226.66 169 227.32 169 228 C169.66 228 170.32 228 171 228 C171 228.66 171 229.32 171 230 C171.66 230 172.32 230 173 230 C173 231.32 173 232.64 173 234 C173.66 234 174.32 234 175 234 C175 234.66 175 235.32 175 236 C175.66 236 176.32 236 177 236 C178.35439668 238.70879335 178.06501451 241.00933268 178 244 C177.01 244 176.02 244 175 244 C175 244.66 175 245.32 175 246 C174.34 246 173.68 246 173 246 C173 246.66 173 247.32 173 248 C172.34 248 171.68 248 171 248 C171 248.66 171 249.32 171 250 C170.34 250 169.68 250 169 250 C169 250.99 169 251.98 169 253 C168.34 253 167.68 253 167 253 C166.67 254.32 166.34 255.64 166 257 C165.34 257 164.68 257 164 257 C164 257.66 164 258.32 164 259 C163.34 259 162.68 259 162 259 C162 259.66 162 260.32 162 261 C161.34 261 160.68 261 160 261 C160 261.66 160 262.32 160 263 C159.34 263 158.68 263 158 263 C158 263.66 158 264.32 158 265 C157.34 265 156.68 265 156 265 C155.67 266.98 155.34 268.96 155 271 C154.34 271 153.68 271 153 271 C153 271.66 153 272.32 153 273 C152.34 273 151.68 273 151 273 C151 273.66 151 274.32 151 275 C150.34 275 149.68 275 149 275 C149 275.66 149 276.32 149 277 C148.34 277 147.68 277 147 277 C147 277.66 147 278.32 147 279 C146.34 279 145.68 279 145 279 C145 279.66 145 280.32 145 281 C144.34 281 143.68 281 143 281 C142.67 282.32 142.34 283.64 142 285 C141.34 285 140.68 285 140 285 C140 285.66 140 286.32 140 287 C139.34 287 138.68 287 138 287 C138 287.66 138 288.32 138 289 C137.34 289 136.68 289 136 289 C136 289.66 136 290.32 136 291 C135.34 291 134.68 291 134 291 C134 291.66 134 292.32 134 293 C133.34 293 132.68 293 132 293 C131.67 294.32 131.34 295.64 131 297 C130.34 297 129.68 297 129 297 C129 297.66 129 298.32 129 299 C128.34 299 127.68 299 127 299 C127 299.66 127 300.32 127 301 C126.34 301 125.68 301 125 301 C125 301.66 125 302.32 125 303 C124.34 303 123.68 303 123 303 C123 303.66 123 304.32 123 305 C122.34 305 121.68 305 121 305 C120.67 306.65 120.34 308.3 120 310 C119.34 310 118.68 310 118 310 C118 310.66 118 311.32 118 312 C117.34 312 116.68 312 116 312 C116 312.66 116 313.32 116 314 C115.34 314 114.68 314 114 314 C114 314.66 114 315.32 114 316 C113.34 316 112.68 316 112 316 C112 316.66 112 317.32 112 318 C111.34 318 110.68 318 110 318 C110 318.66 110 319.32 110 320 C109.34 320 108.68 320 108 320 C107.67 321.32 107.34 322.64 107 324 C106.34 324 105.68 324 105 324 C105 324.66 105 325.32 105 326 C104.34 326 103.68 326 103 326 C103 327.32 103 328.64 103 330 C102.34 330 101.68 330 101 330 C101 330.66 101 331.32 101 332 C100.34 332 99.68 332 99 332 C99 332.66 99 333.32 99 334 C98.34 334 97.68 334 97 334 C96.67 335.32 96.34 336.64 96 338 C95.34 338 94.68 338 94 338 C94 339.32 94 340.64 94 342 C93.34 342 92.68 342 92 342 C92 342.66 92 343.32 92 344 C91.34 344 90.68 344 90 344 C90 344.66 90 345.32 90 346 C89.34 346 88.68 346 88 346 C88 346.66 88 347.32 88 348 C87.34 348 86.68 348 86 348 C85.67 349.98 85.34 351.96 85 354 C84.34 354 83.68 354 83 354 C83 355.32 83 356.64 83 358 C82.34 358 81.68 358 81 358 C81 358.66 81 359.32 81 360 C80.34 360 79.68 360 79 360 C79 361.32 79 362.64 79 364 C78.34 364 77.68 364 77 364 C77 364.99 77 365.98 77 367 C76.34 367 75.68 367 75 367 C75 368.32 75 369.64 75 371 C74.34 371 73.68 371 73 371 C72.67 372.98 72.34 374.96 72 377 C71.34 377 70.68 377 70 377 C70 378.32 70 379.64 70 381 C69.34 381 68.68 381 68 381 C68 381.66 68 382.32 68 383 C67.34 383 66.68 383 66 383 C66 384.32 66 385.64 66 387 C65.34 387 64.68 387 64 387 C64 388.32 64 389.64 64 391 C63.34 391 62.68 391 62 391 C62 392.32 62 393.64 62 395 C60.35 395 58.7 395 57 395 C57 394.34 57 393.68 57 393 C56.34 393 55.68 393 55 393 C55 392.34 55 391.68 55 391 C53.68 391 52.36 391 51 391 C50.67 389.68 50.34 388.36 50 387 C48.68 387 47.36 387 46 387 C46 386.34 46 385.68 46 385 C44.68 385 43.36 385 42 385 C42 384.34 42 383.68 42 383 C40.68 383 39.36 383 38 383 C38 382.34 38 381.68 38 381 C37.01 381 36.02 381 35 381 C35 380.34 35 379.68 35 379 C32.36 379 29.72 379 27 379 C27 378.34 27 377.68 27 377 C26.01 377 25.02 377 24 377 C24 376.34 24 375.68 24 375 C21.36 375 18.72 375 16 375 C16 374.34 16 373.68 16 373 C7.75 373 -0.5 373 -9 373 C-9 373.66 -9 374.32 -9 375 C-12.3 375 -15.6 375 -19 375 C-19 375.66 -19 376.32 -19 377 C-21.31 377 -23.62 377 -26 377 C-26 377.66 -26 378.32 -26 379 C-27.98 379 -29.96 379 -32 379 C-32 379.66 -32 380.32 -32 381 C-32.99 381 -33.98 381 -35 381 C-35 381.66 -35 382.32 -35 383 C-36.32 383 -37.64 383 -39 383 C-39 383.66 -39 384.32 -39 385 C-40.32 385 -41.64 385 -43 385 C-43 385.66 -43 386.32 -43 387 C-43.99 387 -44.98 387 -46 387 C-46 387.66 -46 388.32 -46 389 C-47.32 389 -48.64 389 -50 389 C-50 389.66 -50 390.32 -50 391 C-50.66 391 -51.32 391 -52 391 C-52 391.66 -52 392.32 -52 393 C-52.66 393 -53.32 393 -54 393 C-54 393.66 -54 394.32 -54 395 C-54.99 395 -55.98 395 -57 395 C-57 395.66 -57 396.32 -57 397 C-58.32 397 -59.64 397 -61 397 C-61 396.34 -61 395.68 -61 395 C-61.66 395 -62.32 395 -63 395 C-63 393.68 -63 392.36 -63 391 C-63.66 391 -64.32 391 -65 391 C-65 389.68 -65 388.36 -65 387 C-65.66 387 -66.32 387 -67 387 C-67.33 385.02 -67.66 383.04 -68 381 C-68.66 381 -69.32 381 -70 381 C-70 379.68 -70 378.36 -70 377 C-70.66 377 -71.32 377 -72 377 C-72 375.68 -72 374.36 -72 373 C-72.66 373 -73.32 373 -74 373 C-74 372.34 -74 371.68 -74 371 C-74.66 371 -75.32 371 -76 371 C-76 369.68 -76 368.36 -76 367 C-76.66 367 -77.32 367 -78 367 C-78.495 363.535 -78.495 363.535 -79 360 C-79.66 360 -80.32 360 -81 360 C-81 358.68 -81 357.36 -81 356 C-81.66 356 -82.32 356 -83 356 C-83 355.34 -83 354.68 -83 354 C-83.66 354 -84.32 354 -85 354 C-85 352.68 -85 351.36 -85 350 C-85.66 350 -86.32 350 -87 350 C-87 349.34 -87 348.68 -87 348 C-87.66 348 -88.32 348 -89 348 C-89 347.34 -89 346.68 -89 346 C-89.66 346 -90.32 346 -91 346 C-91.33 344.02 -91.66 342.04 -92 340 C-92.66 340 -93.32 340 -94 340 C-94 338.68 -94 337.36 -94 336 C-94.66 336 -95.32 336 -96 336 C-96 335.34 -96 334.68 -96 334 C-96.66 334 -97.32 334 -98 334 C-98 333.34 -98 332.68 -98 332 C-98.66 332 -99.32 332 -100 332 C-100 331.34 -100 330.68 -100 330 C-100.66 330 -101.32 330 -102 330 C-102.33 328.02 -102.66 326.04 -103 324 C-103.66 324 -104.32 324 -105 324 C-105 323.34 -105 322.68 -105 322 C-105.66 322 -106.32 322 -107 322 C-107 321.34 -107 320.68 -107 320 C-107.66 320 -108.32 320 -109 320 C-109 319.34 -109 318.68 -109 318 C-109.66 318 -110.32 318 -111 318 C-111 317.34 -111 316.68 -111 316 C-111.66 316 -112.32 316 -113 316 C-113.33 314.02 -113.66 312.04 -114 310 C-114.66 310 -115.32 310 -116 310 C-116 309.01 -116 308.02 -116 307 C-116.66 307 -117.32 307 -118 307 C-118 306.34 -118 305.68 -118 305 C-118.66 305 -119.32 305 -120 305 C-120 304.34 -120 303.68 -120 303 C-120.66 303 -121.32 303 -122 303 C-122 302.34 -122 301.68 -122 301 C-122.66 301 -123.32 301 -124 301 C-124 300.34 -124 299.68 -124 299 C-124.66 299 -125.32 299 -126 299 C-126.33 297.02 -126.66 295.04 -127 293 C-128.32 293 -129.64 293 -131 293 C-131 292.34 -131 291.68 -131 291 C-131.66 291 -132.32 291 -133 291 C-133 290.34 -133 289.68 -133 289 C-133.66 289 -134.32 289 -135 289 C-135 288.34 -135 287.68 -135 287 C-135.66 287 -136.32 287 -137 287 C-137.33 285.02 -137.66 283.04 -138 281 C-138.66 281 -139.32 281 -140 281 C-140 280.34 -140 279.68 -140 279 C-141.32 279 -142.64 279 -144 279 C-144 278.34 -144 277.68 -144 277 C-144.66 277 -145.32 277 -146 277 C-146 275.68 -146 274.36 -146 273 C-146.66 273 -147.32 273 -148 273 C-148.495 271.02 -148.495 271.02 -149 269 C-149.66 269 -150.32 269 -151 269 C-151 268.34 -151 267.68 -151 267 C-151.66 267 -152.32 267 -153 267 C-153 266.34 -153 265.68 -153 265 C-153.66 265 -154.32 265 -155 265 C-155 264.34 -155 263.68 -155 263 C-155.66 263 -156.32 263 -157 263 C-157 262.34 -157 261.68 -157 261 C-157.66 261 -158.32 261 -159 261 C-159 260.34 -159 259.68 -159 259 C-159.66 259 -160.32 259 -161 259 C-161 258.34 -161 257.68 -161 257 C-161.99 257 -162.98 257 -164 257 C-164 256.34 -164 255.68 -164 255 C-164.66 255 -165.32 255 -166 255 C-166 253.35 -166 251.7 -166 250 C-166.66 250 -167.32 250 -168 250 C-168 249.34 -168 248.68 -168 248 C-168.66 248 -169.32 248 -170 248 C-170 247.34 -170 246.68 -170 246 C-170.66 246 -171.32 246 -172 246 C-172.33 244.68 -172.66 243.36 -173 242 C-173.66 242 -174.32 242 -175 242 C-175 241.34 -175 240.68 -175 240 C-174.34 240 -173.68 240 -173 240 C-172.67 238.02 -172.34 236.04 -172 234 C-171.34 234 -170.68 234 -170 234 C-170 233.34 -170 232.68 -170 232 C-169.34 232 -168.68 232 -168 232 C-168 231.34 -168 230.68 -168 230 C-167.34 230 -166.68 230 -166 230 C-166 229.34 -166 228.68 -166 228 C-165.34 228 -164.68 228 -164 228 C-164 226.68 -164 225.36 -164 224 C-163.34 224 -162.68 224 -162 224 C-161.505 222.02 -161.505 222.02 -161 220 C-160.34 220 -159.68 220 -159 220 C-159 219.34 -159 218.68 -159 218 C-158.34 218 -157.68 218 -157 218 C-157 216.68 -157 215.36 -157 214 C-156.34 214 -155.68 214 -155 214 C-155 213.34 -155 212.68 -155 212 C-154.34 212 -153.68 212 -153 212 C-153 211.34 -153 210.68 -153 210 C-152.34 210 -151.68 210 -151 210 C-151 209.34 -151 208.68 -151 208 C-150.34 208 -149.68 208 -149 208 C-148.505 205.03 -148.505 205.03 -148 202 C-147.34 202 -146.68 202 -146 202 C-146 201.34 -146 200.68 -146 200 C-145.34 200 -144.68 200 -144 200 C-144 199.34 -144 198.68 -144 198 C-143.34 198 -142.68 198 -142 198 C-142 197.34 -142 196.68 -142 196 C-141.34 196 -140.68 196 -140 196 C-140 194.35 -140 192.7 -140 191 C-139.34 191 -138.68 191 -138 191 C-137.67 189.68 -137.34 188.36 -137 187 C-136.34 187 -135.68 187 -135 187 C-135 186.34 -135 185.68 -135 185 C-134.34 185 -133.68 185 -133 185 C-133 183.68 -133 182.36 -133 181 C-132.34 181 -131.68 181 -131 181 C-131 180.34 -131 179.68 -131 179 C-130.34 179 -129.68 179 -129 179 C-129 178.34 -129 177.68 -129 177 C-128.34 177 -127.68 177 -127 177 C-126.505 174.03 -126.505 174.03 -126 171 C-125.34 171 -124.68 171 -124 171 C-124 170.34 -124 169.68 -124 169 C-123.34 169 -122.68 169 -122 169 C-122 168.34 -122 167.68 -122 167 C-121.34 167 -120.68 167 -120 167 C-120 166.34 -120 165.68 -120 165 C-119.34 165 -118.68 165 -118 165 C-118 163.68 -118 162.36 -118 161 C-117.34 161 -116.68 161 -116 161 C-116 160.34 -116 159.68 -116 159 C-115.34 159 -114.68 159 -114 159 C-113.67 157.68 -113.34 156.36 -113 155 C-112.34 155 -111.68 155 -111 155 C-111 154.34 -111 153.68 -111 153 C-110.34 153 -109.68 153 -109 153 C-109 151.68 -109 150.36 -109 149 C-108.34 149 -107.68 149 -107 149 C-107 148.34 -107 147.68 -107 147 C-106.34 147 -105.68 147 -105 147 C-105 146.34 -105 145.68 -105 145 C-104.34 145 -103.68 145 -103 145 C-102.67 142.69 -102.34 140.38 -102 138 C-101.34 138 -100.68 138 -100 138 C-100 137.34 -100 136.68 -100 136 C-99.34 136 -98.68 136 -98 136 C-98 135.34 -98 134.68 -98 134 C-97.34 134 -96.68 134 -96 134 C-96 133.34 -96 132.68 -96 132 C-95.34 132 -94.68 132 -94 132 C-94 130.68 -94 129.36 -94 128 C-93.34 128 -92.68 128 -92 128 C-91.505 126.02 -91.505 126.02 -91 124 C-90.34 124 -89.68 124 -89 124 C-89 123.34 -89 122.68 -89 122 C-88.34 122 -87.68 122 -87 122 C-87 120.68 -87 119.36 -87 118 C-86.34 118 -85.68 118 -85 118 C-85 117.34 -85 116.68 -85 116 C-84.34 116 -83.68 116 -83 116 C-83 115.34 -83 114.68 -83 114 C-82.34 114 -81.68 114 -81 114 C-81 112.68 -81 111.36 -81 110 C-80.34 110 -79.68 110 -79 110 C-78.505 108.02 -78.505 108.02 -78 106 C-77.34 106 -76.68 106 -76 106 C-76 105.34 -76 104.68 -76 104 C-75.34 104 -74.68 104 -74 104 C-74 103.34 -74 102.68 -74 102 C-73.34 102 -72.68 102 -72 102 C-72 100.68 -72 99.36 -72 98 C-71.34 98 -70.68 98 -70 98 C-70 97.34 -70 96.68 -70 96 C-69.34 96 -68.68 96 -68 96 C-67.505 94.02 -67.505 94.02 -67 92 C-66.34 92 -65.68 92 -65 92 C-65 90.68 -65 89.36 -65 88 C-64.34 88 -63.68 88 -63 88 C-63 87.34 -63 86.68 -63 86 C-62.34 86 -61.68 86 -61 86 C-61 85.34 -61 84.68 -61 84 C-60.34 84 -59.68 84 -59 84 C-59 83.01 -59 82.02 -59 81 C-58.34 81 -57.68 81 -57 81 C-56.67 79.02 -56.34 77.04 -56 75 C-55.34 75 -54.68 75 -54 75 C-54 74.34 -54 73.68 -54 73 C-53.34 73 -52.68 73 -52 73 C-52 72.34 -52 71.68 -52 71 C-51.34 71 -50.68 71 -50 71 C-50 70.34 -50 69.68 -50 69 C-49.34 69 -48.68 69 -48 69 C-48 67.68 -48 66.36 -48 65 C-47.34 65 -46.68 65 -46 65 C-46 64.34 -46 63.68 -46 63 C-45.34 63 -44.68 63 -44 63 C-43.67 61.68 -43.34 60.36 -43 59 C-42.34 59 -41.68 59 -41 59 C-41 57.68 -41 56.36 -41 55 C-40.34 55 -39.68 55 -39 55 C-39 54.34 -39 53.68 -39 53 C-38.34 53 -37.68 53 -37 53 C-37 52.34 -37 51.68 -37 51 C-36.34 51 -35.68 51 -35 51 C-35 49.68 -35 48.36 -35 47 C-34.34 47 -33.68 47 -33 47 C-32.67 45.68 -32.34 44.36 -32 43 C-31.34 43 -30.68 43 -30 43 C-30 42.34 -30 41.68 -30 41 C-29.34 41 -28.68 41 -28 41 C-28 40.34 -28 39.68 -28 39 C-27.34 39 -26.68 39 -26 39 C-26 37.68 -26 36.36 -26 35 C-25.34 35 -24.68 35 -24 35 C-24 34.34 -24 33.68 -24 33 C-23.34 33 -22.68 33 -22 33 C-21.67 31.68 -21.34 30.36 -21 29 C-20.34 29 -19.68 29 -19 29 C-19 27.35 -19 25.7 -19 24 C-18.34 24 -17.68 24 -17 24 C-17 23.34 -17 22.68 -17 22 C-16.34 22 -15.68 22 -15 22 C-15 21.34 -15 20.68 -15 20 C-14.34 20 -13.68 20 -13 20 C-13 19.34 -13 18.68 -13 18 C-12.34 18 -11.68 18 -11 18 C-11 16.68 -11 15.36 -11 14 C-10.34 14 -9.68 14 -9 14 C-8.67 12.68 -8.34 11.36 -8 10 C-7.34 10 -6.68 10 -6 10 C-6 9.34 -6 8.68 -6 8 C-5.34 8 -4.68 8 -4 8 C-4 6.68 -4 5.36 -4 4 C-3.34 4 -2.68 4 -2 4 C-2 3.34 -2 2.68 -2 2 C-1.34 2 -0.68 2 0 2 C0 1.34 0 0.68 0 0 Z " fill="#118CEF" transform="translate(498,59)"/>
<path d="M0 0 C1.65 0 3.3 0 5 0 C5 0.66 5 1.32 5 2 C5.66 2 6.32 2 7 2 C7 2.66 7 3.32 7 4 C7.66 4 8.32 4 9 4 C9 5.32 9 6.64 9 8 C9.66 8 10.32 8 11 8 C11 8.66 11 9.32 11 10 C11.66 10 12.32 10 13 10 C13 10.66 13 11.32 13 12 C13.66 12 14.32 12 15 12 C15.33 13.32 15.66 14.64 16 16 C16.66 16 17.32 16 18 16 C18 16.66 18 17.32 18 18 C18.66 18 19.32 18 20 18 C20 18.66 20 19.32 20 20 C20.66 20 21.32 20 22 20 C22 20.66 22 21.32 22 22 C22.66 22 23.32 22 24 22 C24 22.66 24 23.32 24 24 C25.32 24 26.64 24 28 24 C28.33 25.32 28.66 26.64 29 28 C29.66 28 30.32 28 31 28 C31 28.99 31 29.98 31 31 C31.66 31 32.32 31 33 31 C33 31.66 33 32.32 33 33 C33.66 33 34.32 33 35 33 C35 33.66 35 34.32 35 35 C35.66 35 36.32 35 37 35 C37 35.66 37 36.32 37 37 C37.66 37 38.32 37 39 37 C39.33 38.32 39.66 39.64 40 41 C40.66 41 41.32 41 42 41 C42 41.66 42 42.32 42 43 C42.66 43 43.32 43 44 43 C44 43.66 44 44.32 44 45 C44.66 45 45.32 45 46 45 C46 46.32 46 47.64 46 49 C46.66 49 47.32 49 48 49 C48 49.66 48 50.32 48 51 C48.66 51 49.32 51 50 51 C50.33 52.32 50.66 53.64 51 55 C51.66 55 52.32 55 53 55 C53 55.66 53 56.32 53 57 C53.66 57 54.32 57 55 57 C55 57.66 55 58.32 55 59 C56.32 59 57.64 59 59 59 C59 59.66 59 60.32 59 61 C59.66 61 60.32 61 61 61 C61 61.66 61 62.32 61 63 C61.66 63 62.32 63 63 63 C63.33 64.32 63.66 65.64 64 67 C64.66 67 65.32 67 66 67 C66 67.66 66 68.32 66 69 C66.66 69 67.32 69 68 69 C68 69.66 68 70.32 68 71 C68.66 71 69.32 71 70 71 C70 71.66 70 72.32 70 73 C70.66 73 71.32 73 72 73 C72 73.66 72 74.32 72 75 C72.66 75 73.32 75 74 75 C74.33 76.32 74.66 77.64 75 79 C75.66 79 76.32 79 77 79 C77 79.66 77 80.32 77 81 C77.66 81 78.32 81 79 81 C79 81.66 79 82.32 79 83 C80.32 83 81.64 83 83 83 C83 83.66 83 84.32 83 85 C83.66 85 84.32 85 85 85 C85.33 86.65 85.66 88.3 86 90 C86.66 90 87.32 90 88 90 C88 90.66 88 91.32 88 92 C89.32 92 90.64 92 92 92 C92 92.66 92 93.32 92 94 C92.66 94 93.32 94 94 94 C94 94.66 94 95.32 94 96 C94.66 96 95.32 96 96 96 C96 96.66 96 97.32 96 98 C96.99 98 97.98 98 99 98 C99 98.66 99 99.32 99 100 C99.66 100 100.32 100 101 100 C101 100.66 101 101.32 101 102 C101.66 102 102.32 102 103 102 C103 102.66 103 103.32 103 104 C103.66 104 104.32 104 105 104 C105 104.66 105 105.32 105 106 C106.32 106 107.64 106 109 106 C109.33 107.32 109.66 108.64 110 110 C111.32 110 112.64 110 114 110 C114 110.66 114 111.32 114 112 C114.66 112 115.32 112 116 112 C116 112.66 116 113.32 116 114 C117.32 114 118.64 114 120 114 C120.33 115.32 120.66 116.64 121 118 C122.32 118 123.64 118 125 118 C125 118.66 125 119.32 125 120 C125.66 120 126.32 120 127 120 C127 120.66 127 121.32 127 122 C128.32 122 129.64 122 131 122 C131 122.66 131 123.32 131 124 C131.99 124 132.98 124 134 124 C134 124.66 134 125.32 134 126 C134.66 126 135.32 126 136 126 C136 126.66 136 127.32 136 128 C137.32 128 138.64 128 140 128 C140 128.66 140 129.32 140 130 C140.66 130 141.32 130 142 130 C142 130.66 142 131.32 142 132 C141.34 132 140.68 132 140 132 C140 133.32 140 134.64 140 136 C139.34 136 138.68 136 138 136 C138 136.66 138 137.32 138 138 C137.34 138 136.68 138 136 138 C136 139.65 136 141.3 136 143 C135.34 143 134.68 143 134 143 C133.67 145.64 133.34 148.28 133 151 C132.34 151 131.68 151 131 151 C131 152.32 131 153.64 131 155 C130.34 155 129.68 155 129 155 C129 156.32 129 157.64 129 159 C128.34 159 127.68 159 127 159 C127 160.32 127 161.64 127 163 C126.34 163 125.68 163 125 163 C125 165.64 125 168.28 125 171 C124.34 171 123.68 171 123 171 C123 174.3 123 177.6 123 181 C122.34 181 121.68 181 121 181 C121 189.25 121 197.5 121 206 C121.66 206 122.32 206 123 206 C123 210.62 123 215.24 123 220 C123.66 220 124.32 220 125 220 C125 222.64 125 225.28 125 228 C125.66 228 126.32 228 127 228 C127 229.98 127 231.96 127 234 C127.66 234 128.32 234 129 234 C129 234.66 129 235.32 129 236 C129.66 236 130.32 236 131 236 C131 237.32 131 238.64 131 240 C131.66 240 132.32 240 133 240 C133.33 242.64 133.66 245.28 134 248 C134.66 248 135.32 248 136 248 C136 249.32 136 250.64 136 252 C136.66 252 137.32 252 138 252 C138 252.66 138 253.32 138 254 C138.66 254 139.32 254 140 254 C140 255.65 140 257.3 140 259 C140.66 259 141.32 259 142 259 C142 259.66 142 260.32 142 261 C142.66 261 143.32 261 144 261 C144 262.32 144 263.64 144 265 C142.68 265 141.36 265 140 265 C140 265.66 140 266.32 140 267 C138.68 267 137.36 267 136 267 C136 267.66 136 268.32 136 269 C135.01 269 134.02 269 133 269 C133 269.66 133 270.32 133 271 C131.68 271 130.36 271 129 271 C129 271.66 129 272.32 129 273 C127.68 273 126.36 273 125 273 C125 273.66 125 274.32 125 275 C124.34 275 123.68 275 123 275 C123 275.66 123 276.32 123 277 C122.01 277 121.02 277 120 277 C120 277.66 120 278.32 120 279 C118.68 279 117.36 279 116 279 C116 279.66 116 280.32 116 281 C115.34 281 114.68 281 114 281 C114 281.66 114 282.32 114 283 C112.68 283 111.36 283 110 283 C109.67 284.32 109.34 285.64 109 287 C107.68 287 106.36 287 105 287 C105 287.66 105 288.32 105 289 C104.34 289 103.68 289 103 289 C103 289.66 103 290.32 103 291 C101.68 291 100.36 291 99 291 C98.67 292.32 98.34 293.64 98 295 C97.34 295 96.68 295 96 295 C96 295.66 96 296.32 96 297 C94.68 297 93.36 297 92 297 C92 297.66 92 298.32 92 299 C91.34 299 90.68 299 90 299 C90 299.66 90 300.32 90 301 C89.34 301 88.68 301 88 301 C88 301.66 88 302.32 88 303 C87.34 303 86.68 303 86 303 C86 303.66 86 304.32 86 305 C85.01 305 84.02 305 83 305 C83 305.66 83 306.32 83 307 C82.34 307 81.68 307 81 307 C81 307.66 81 308.32 81 309 C79.68 309 78.36 309 77 309 C77 309.99 77 310.98 77 312 C76.34 312 75.68 312 75 312 C74.67 313.32 74.34 314.64 74 316 C73.34 316 72.68 316 72 316 C72 316.66 72 317.32 72 318 C71.34 318 70.68 318 70 318 C70 318.66 70 319.32 70 320 C69.34 320 68.68 320 68 320 C68 320.66 68 321.32 68 322 C67.34 322 66.68 322 66 322 C66 322.66 66 323.32 66 324 C65.34 324 64.68 324 64 324 C63.67 325.32 63.34 326.64 63 328 C61.68 328 60.36 328 59 328 C59 328.66 59 329.32 59 330 C58.34 330 57.68 330 57 330 C57 330.66 57 331.32 57 332 C56.34 332 55.68 332 55 332 C55 332.66 55 333.32 55 334 C54.34 334 53.68 334 53 334 C53 334.66 53 335.32 53 336 C52.34 336 51.68 336 51 336 C50.67 337.32 50.34 338.64 50 340 C49.34 340 48.68 340 48 340 C48 340.66 48 341.32 48 342 C47.34 342 46.68 342 46 342 C46 342.66 46 343.32 46 344 C45.34 344 44.68 344 44 344 C44 344.66 44 345.32 44 346 C43.34 346 42.68 346 42 346 C42 346.66 42 347.32 42 348 C41.34 348 40.68 348 40 348 C39.67 349.32 39.34 350.64 39 352 C38.34 352 37.68 352 37 352 C37 352.66 37 353.32 37 354 C36.34 354 35.68 354 35 354 C35 354.66 35 355.32 35 356 C34.34 356 33.68 356 33 356 C33 356.66 33 357.32 33 358 C32.34 358 31.68 358 31 358 C31 358.66 31 359.32 31 360 C30.34 360 29.68 360 29 360 C28.67 361.32 28.34 362.64 28 364 C27.34 364 26.68 364 26 364 C26 364.66 26 365.32 26 366 C25.34 366 24.68 366 24 366 C24 366.99 24 367.98 24 369 C23.34 369 22.68 369 22 369 C22 369.66 22 370.32 22 371 C21.34 371 20.68 371 20 371 C20 371.66 20 372.32 20 373 C19.34 373 18.68 373 18 373 C18 373.66 18 374.32 18 375 C17.34 375 16.68 375 16 375 C15.67 376.32 15.34 377.64 15 379 C14.34 379 13.68 379 13 379 C13 379.66 13 380.32 13 381 C12.34 381 11.68 381 11 381 C11 381.66 11 382.32 11 383 C10.34 383 9.68 383 9 383 C9 383.66 9 384.32 9 385 C8.34 385 7.68 385 7 385 C7 385.66 7 386.32 7 387 C6.34 387 5.68 387 5 387 C4.67 388.32 4.34 389.64 4 391 C2.68 391 1.36 391 0 391 C0 390.34 0 389.68 0 389 C-0.66 389 -1.32 389 -2 389 C-2 388.34 -2 387.68 -2 387 C-2.66 387 -3.32 387 -4 387 C-4 386.34 -4 385.68 -4 385 C-4.66 385 -5.32 385 -6 385 C-6.33 383.68 -6.66 382.36 -7 381 C-8.32 381 -9.64 381 -11 381 C-11 380.34 -11 379.68 -11 379 C-11.66 379 -12.32 379 -13 379 C-13 378.34 -13 377.68 -13 377 C-14.32 377 -15.64 377 -17 377 C-17 376.34 -17 375.68 -17 375 C-17.66 375 -18.32 375 -19 375 C-19.33 373.68 -19.66 372.36 -20 371 C-20.66 371 -21.32 371 -22 371 C-22 370.34 -22 369.68 -22 369 C-22.66 369 -23.32 369 -24 369 C-24 368.01 -24 367.02 -24 366 C-25.32 366 -26.64 366 -28 366 C-28 365.34 -28 364.68 -28 364 C-28.66 364 -29.32 364 -30 364 C-30.33 362.68 -30.66 361.36 -31 360 C-32.32 360 -33.64 360 -35 360 C-35 359.34 -35 358.68 -35 358 C-35.66 358 -36.32 358 -37 358 C-37 357.34 -37 356.68 -37 356 C-37.66 356 -38.32 356 -39 356 C-39 355.34 -39 354.68 -39 354 C-39.66 354 -40.32 354 -41 354 C-41.33 352.68 -41.66 351.36 -42 350 C-43.32 350 -44.64 350 -46 350 C-46 349.34 -46 348.68 -46 348 C-46.66 348 -47.32 348 -48 348 C-48 347.34 -48 346.68 -48 346 C-48.66 346 -49.32 346 -50 346 C-50 345.34 -50 344.68 -50 344 C-50.66 344 -51.32 344 -52 344 C-52 343.34 -52 342.68 -52 342 C-52.66 342 -53.32 342 -54 342 C-54.33 340.68 -54.66 339.36 -55 338 C-56.32 338 -57.64 338 -59 338 C-59 337.34 -59 336.68 -59 336 C-59.66 336 -60.32 336 -61 336 C-61 335.34 -61 334.68 -61 334 C-61.66 334 -62.32 334 -63 334 C-63 333.34 -63 332.68 -63 332 C-63.99 332 -64.98 332 -66 332 C-66 331.34 -66 330.68 -66 330 C-66.66 330 -67.32 330 -68 330 C-68 329.34 -68 328.68 -68 328 C-68.66 328 -69.32 328 -70 328 C-70 327.34 -70 326.68 -70 326 C-71.32 326 -72.64 326 -74 326 C-74 325.34 -74 324.68 -74 324 C-74.66 324 -75.32 324 -76 324 C-76.33 322.68 -76.66 321.36 -77 320 C-77.66 320 -78.32 320 -79 320 C-79 319.34 -79 318.68 -79 318 C-79.66 318 -80.32 318 -81 318 C-81 317.34 -81 316.68 -81 316 C-82.32 316 -83.64 316 -85 316 C-85 315.34 -85 314.68 -85 314 C-85.66 314 -86.32 314 -87 314 C-87 313.34 -87 312.68 -87 312 C-87.66 312 -88.32 312 -89 312 C-89.33 310.35 -89.66 308.7 -90 307 C-91.32 307 -92.64 307 -94 307 C-94 306.34 -94 305.68 -94 305 C-94.66 305 -95.32 305 -96 305 C-96 304.34 -96 303.68 -96 303 C-96.66 303 -97.32 303 -98 303 C-98 302.34 -98 301.68 -98 301 C-98.66 301 -99.32 301 -100 301 C-100 300.34 -100 299.68 -100 299 C-100.99 299 -101.98 299 -103 299 C-103 298.34 -103 297.68 -103 297 C-103.66 297 -104.32 297 -105 297 C-105 296.34 -105 295.68 -105 295 C-105.66 295 -106.32 295 -107 295 C-107 294.34 -107 293.68 -107 293 C-107.66 293 -108.32 293 -109 293 C-109 292.34 -109 291.68 -109 291 C-109.66 291 -110.32 291 -111 291 C-111.33 289.68 -111.66 288.36 -112 287 C-113.32 287 -114.64 287 -116 287 C-116 286.34 -116 285.68 -116 285 C-116.66 285 -117.32 285 -118 285 C-118 284.34 -118 283.68 -118 283 C-118.66 283 -119.32 283 -120 283 C-120 282.34 -120 281.68 -120 281 C-121.32 281 -122.64 281 -124 281 C-124.33 279.68 -124.66 278.36 -125 277 C-125.66 277 -126.32 277 -127 277 C-127 276.34 -127 275.68 -127 275 C-127.66 275 -128.32 275 -129 275 C-129 274.34 -129 273.68 -129 273 C-129.66 273 -130.32 273 -131 273 C-131 272.34 -131 271.68 -131 271 C-132.32 271 -133.64 271 -135 271 C-135.33 269.68 -135.66 268.36 -136 267 C-136.66 267 -137.32 267 -138 267 C-138 266.34 -138 265.68 -138 265 C-139.32 265 -140.64 265 -142 265 C-142 264.34 -142 263.68 -142 263 C-142.66 263 -143.32 263 -144 263 C-144 262.34 -144 261.68 -144 261 C-144.66 261 -145.32 261 -146 261 C-146.33 259.68 -146.66 258.36 -147 257 C-148.32 257 -149.64 257 -151 257 C-151 256.01 -151 255.02 -151 254 C-151.66 254 -152.32 254 -153 254 C-153 253.34 -153 252.68 -153 252 C-153.66 252 -154.32 252 -155 252 C-155 251.34 -155 250.68 -155 250 C-155.66 250 -156.32 250 -157 250 C-157 249.34 -157 248.68 -157 248 C-157.66 248 -158.32 248 -159 248 C-159 247.34 -159 246.68 -159 246 C-159.99 246 -160.98 246 -162 246 C-162 245.34 -162 244.68 -162 244 C-162.66 244 -163.32 244 -164 244 C-164 243.34 -164 242.68 -164 242 C-164.66 242 -165.32 242 -166 242 C-166 241.34 -166 240.68 -166 240 C-166.66 240 -167.32 240 -168 240 C-168 239.34 -168 238.68 -168 238 C-168.66 238 -169.32 238 -170 238 C-170 237.34 -170 236.68 -170 236 C-170.99 236 -171.98 236 -173 236 C-173 235.34 -173 234.68 -173 234 C-173.66 234 -174.32 234 -175 234 C-175 233.34 -175 232.68 -175 232 C-175.66 232 -176.32 232 -177 232 C-177 231.34 -177 230.68 -177 230 C-177.66 230 -178.32 230 -179 230 C-179 229.34 -179 228.68 -179 228 C-179.99 228 -180.98 228 -182 228 C-182 227.34 -182 226.68 -182 226 C-182.66 226 -183.32 226 -184 226 C-184 225.34 -184 224.68 -184 224 C-184.66 224 -185.32 224 -186 224 C-186 223.34 -186 222.68 -186 222 C-187.32 222 -188.64 222 -190 222 C-190 221.34 -190 220.68 -190 220 C-190.66 220 -191.32 220 -192 220 C-192 219.34 -192 218.68 -192 218 C-192.66 218 -193.32 218 -194 218 C-194.495 216.02 -194.495 216.02 -195 214 C-196.32 214 -197.64 214 -199 214 C-199 213.34 -199 212.68 -199 212 C-199.66 212 -200.32 212 -201 212 C-201 211.34 -201 210.68 -201 210 C-201.66 210 -202.32 210 -203 210 C-203 209.34 -203 208.68 -203 208 C-203.66 208 -204.32 208 -205 208 C-205.33 206.68 -205.66 205.36 -206 204 C-206.66 204 -207.32 204 -208 204 C-208 203.34 -208 202.68 -208 202 C-209.32 202 -210.64 202 -212 202 C-212 201.34 -212 200.68 -212 200 C-212.66 200 -213.32 200 -214 200 C-214 199.01 -214 198.02 -214 197 C-214.66 197 -215.32 197 -216 197 C-216 195.68 -216 194.36 -216 193 C-214.68 193 -213.36 193 -212 193 C-212 192.34 -212 191.68 -212 191 C-211.34 191 -210.68 191 -210 191 C-210 190.34 -210 189.68 -210 189 C-209.34 189 -208.68 189 -208 189 C-208 188.34 -208 187.68 -208 187 C-207.34 187 -206.68 187 -206 187 C-205.505 185.02 -205.505 185.02 -205 183 C-203.68 183 -202.36 183 -201 183 C-201 182.34 -201 181.68 -201 181 C-200.34 181 -199.68 181 -199 181 C-199 180.34 -199 179.68 -199 179 C-198.34 179 -197.68 179 -197 179 C-197 178.34 -197 177.68 -197 177 C-196.34 177 -195.68 177 -195 177 C-195 176.34 -195 175.68 -195 175 C-194.01 175 -193.02 175 -192 175 C-192 174.34 -192 173.68 -192 173 C-191.34 173 -190.68 173 -190 173 C-190 172.34 -190 171.68 -190 171 C-189.34 171 -188.68 171 -188 171 C-188 170.34 -188 169.68 -188 169 C-187.34 169 -186.68 169 -186 169 C-186 168.34 -186 167.68 -186 167 C-184.68 167 -183.36 167 -182 167 C-181.67 165.68 -181.34 164.36 -181 163 C-180.34 163 -179.68 163 -179 163 C-179 162.34 -179 161.68 -179 161 C-178.34 161 -177.68 161 -177 161 C-177 160.34 -177 159.68 -177 159 C-176.34 159 -175.68 159 -175 159 C-175 158.34 -175 157.68 -175 157 C-173.68 157 -172.36 157 -171 157 C-170.67 155.68 -170.34 154.36 -170 153 C-169.34 153 -168.68 153 -168 153 C-168 152.34 -168 151.68 -168 151 C-167.34 151 -166.68 151 -166 151 C-166 150.34 -166 149.68 -166 149 C-164.68 149 -163.36 149 -162 149 C-162 148.34 -162 147.68 -162 147 C-161.34 147 -160.68 147 -160 147 C-159.67 145.68 -159.34 144.36 -159 143 C-158.34 143 -157.68 143 -157 143 C-157 142.01 -157 141.02 -157 140 C-155.68 140 -154.36 140 -153 140 C-153 139.34 -153 138.68 -153 138 C-152.34 138 -151.68 138 -151 138 C-151 137.34 -151 136.68 -151 136 C-150.34 136 -149.68 136 -149 136 C-149 135.34 -149 134.68 -149 134 C-148.34 134 -147.68 134 -147 134 C-146.67 132.68 -146.34 131.36 -146 130 C-144.68 130 -143.36 130 -142 130 C-142 129.34 -142 128.68 -142 128 C-141.34 128 -140.68 128 -140 128 C-140 127.34 -140 126.68 -140 126 C-139.34 126 -138.68 126 -138 126 C-138 125.34 -138 124.68 -138 124 C-137.34 124 -136.68 124 -136 124 C-136 123.34 -136 122.68 -136 122 C-135.01 122 -134.02 122 -133 122 C-133 121.34 -133 120.68 -133 120 C-132.34 120 -131.68 120 -131 120 C-131 119.34 -131 118.68 -131 118 C-130.34 118 -129.68 118 -129 118 C-129 117.34 -129 116.68 -129 116 C-128.34 116 -127.68 116 -127 116 C-127 115.34 -127 114.68 -127 114 C-126.34 114 -125.68 114 -125 114 C-125 113.34 -125 112.68 -125 112 C-124.01 112 -123.02 112 -122 112 C-122 111.34 -122 110.68 -122 110 C-121.34 110 -120.68 110 -120 110 C-120 109.34 -120 108.68 -120 108 C-119.34 108 -118.68 108 -118 108 C-118 107.34 -118 106.68 -118 106 C-116.68 106 -115.36 106 -114 106 C-114 105.34 -114 104.68 -114 104 C-113.34 104 -112.68 104 -112 104 C-111.505 102.02 -111.505 102.02 -111 100 C-110.34 100 -109.68 100 -109 100 C-109 99.34 -109 98.68 -109 98 C-108.34 98 -107.68 98 -107 98 C-107 97.34 -107 96.68 -107 96 C-105.68 96 -104.36 96 -103 96 C-103 95.34 -103 94.68 -103 94 C-102.34 94 -101.68 94 -101 94 C-100.505 92.02 -100.505 92.02 -100 90 C-99.34 90 -98.68 90 -98 90 C-98 89.34 -98 88.68 -98 88 C-97.34 88 -96.68 88 -96 88 C-96 87.01 -96 86.02 -96 85 C-94.68 85 -93.36 85 -92 85 C-92 84.34 -92 83.68 -92 83 C-91.34 83 -90.68 83 -90 83 C-89.505 81.02 -89.505 81.02 -89 79 C-88.34 79 -87.68 79 -87 79 C-87 78.34 -87 77.68 -87 77 C-85.68 77 -84.36 77 -83 77 C-83 76.34 -83 75.68 -83 75 C-82.34 75 -81.68 75 -81 75 C-81 74.34 -81 73.68 -81 73 C-80.34 73 -79.68 73 -79 73 C-79 72.34 -79 71.68 -79 71 C-78.34 71 -77.68 71 -77 71 C-76.67 69.68 -76.34 68.36 -76 67 C-74.68 67 -73.36 67 -72 67 C-72 66.34 -72 65.68 -72 65 C-71.34 65 -70.68 65 -70 65 C-70 64.34 -70 63.68 -70 63 C-69.34 63 -68.68 63 -68 63 C-68 62.34 -68 61.68 -68 61 C-67.34 61 -66.68 61 -66 61 C-66 60.34 -66 59.68 -66 59 C-65.01 59 -64.02 59 -63 59 C-63 58.34 -63 57.68 -63 57 C-62.34 57 -61.68 57 -61 57 C-61 56.34 -61 55.68 -61 55 C-60.34 55 -59.68 55 -59 55 C-59 54.34 -59 53.68 -59 53 C-58.34 53 -57.68 53 -57 53 C-57 52.34 -57 51.68 -57 51 C-56.01 51 -55.02 51 -54 51 C-54 50.34 -54 49.68 -54 49 C-53.34 49 -52.68 49 -52 49 C-52 48.34 -52 47.68 -52 47 C-51.34 47 -50.68 47 -50 47 C-50 46.34 -50 45.68 -50 45 C-49.34 45 -48.68 45 -48 45 C-48 44.34 -48 43.68 -48 43 C-46.68 43 -45.36 43 -44 43 C-44 42.34 -44 41.68 -44 41 C-43.34 41 -42.68 41 -42 41 C-41.67 39.68 -41.34 38.36 -41 37 C-40.34 37 -39.68 37 -39 37 C-39 36.34 -39 35.68 -39 35 C-38.34 35 -37.68 35 -37 35 C-37 34.34 -37 33.68 -37 33 C-35.68 33 -34.36 33 -33 33 C-33 32.34 -33 31.68 -33 31 C-32.34 31 -31.68 31 -31 31 C-30.67 29.35 -30.34 27.7 -30 26 C-29.34 26 -28.68 26 -28 26 C-28 25.34 -28 24.68 -28 24 C-26.68 24 -25.36 24 -24 24 C-24 23.34 -24 22.68 -24 22 C-23.34 22 -22.68 22 -22 22 C-22 21.34 -22 20.68 -22 20 C-21.34 20 -20.68 20 -20 20 C-19.67 18.68 -19.34 17.36 -19 16 C-17.68 16 -16.36 16 -15 16 C-15 15.34 -15 14.68 -15 14 C-14.34 14 -13.68 14 -13 14 C-13 13.34 -13 12.68 -13 12 C-12.34 12 -11.68 12 -11 12 C-11 11.34 -11 10.68 -11 10 C-10.34 10 -9.68 10 -9 10 C-9 9.34 -9 8.68 -9 8 C-8.34 8 -7.68 8 -7 8 C-7 7.34 -7 6.68 -7 6 C-6.01 6 -5.02 6 -4 6 C-4 5.34 -4 4.68 -4 4 C-3.34 4 -2.68 4 -2 4 C-2 3.34 -2 2.68 -2 2 C-1.34 2 -0.68 2 0 2 C0 1.34 0 0.68 0 0 Z " fill="#118CEF" transform="translate(286,338)"/>
<path d="M0 0 C1.32 0 2.64 0 4 0 C4 0.66 4 1.32 4 2 C3.34 2 2.68 2 2 2 C2 2.66 2 3.32 2 4 C-6.58 4 -15.16 4 -24 4 C-24 3.34 -24 2.68 -24 2 C-16.08 2 -8.16 2 0 2 C0 1.34 0 0.68 0 0 Z " fill="#186DB5" transform="translate(518,631)"/>
<path d="M0 0 C1.32 0 2.64 0 4 0 C4 0.66 4 1.32 4 2 C3.34 2 2.68 2 2 2 C2 2.66 2 3.32 2 4 C-0.97 4 -3.94 4 -7 4 C-7 3.34 -7 2.68 -7 2 C-4.69 2 -2.38 2 0 2 C0 1.34 0 0.68 0 0 Z " fill="#1578CA" transform="translate(518,631)"/>
<path d="M0 0 C0.66 0 1.32 0 2 0 C2 2.64 2 5.28 2 8 C1.34 8 0.68 8 0 8 C-1.125 2.25 -1.125 2.25 0 0 Z " fill="#1678C9" transform="translate(571,464)"/>
<path d="M0 0 C0.66 0 1.32 0 2 0 C2 0.66 2 1.32 2 2 C2.66 2 3.32 2 4 2 C4.33 3.32 4.66 4.64 5 6 C4.01 6 3.02 6 2 6 C2 5.34 2 4.68 2 4 C1.34 4 0.68 4 0 4 C0 2.68 0 1.36 0 0 Z " fill="#1D578D" transform="translate(356,338)"/>
</svg>
